<?xml version="1.0" encoding="UTF-8" standalone="no"?>
<svg
   class="img-fluid"
   id="outputsvg"
   style="transform: none; transform-origin: 50% 50%; cursor: move; max-height: none;"
   width="560"
   height="560"
   viewBox="0 0 5600 5600"
   version="1.1"
   sodipodi:docname="shirasvg.svg"
   inkscape:version="1.1 (c68e22c387, 2021-05-23)"
   xmlns:inkscape="http://www.inkscape.org/namespaces/inkscape"
   xmlns:sodipodi="http://sodipodi.sourceforge.net/DTD/sodipodi-0.dtd"
   xmlns="http://www.w3.org/2000/svg"
   xmlns:svg="http://www.w3.org/2000/svg">
  <defs
     id="defs165" />
  <sodipodi:namedview
     id="namedview163"
     pagecolor="#505050"
     bordercolor="#ffffff"
     borderopacity="1"
     inkscape:pageshadow="0"
     inkscape:pageopacity="0"
     inkscape:pagecheckerboard="1"
     showgrid="false"
     inkscape:zoom="1.3446429"
     inkscape:cx="341.72643"
     inkscape:cy="325.36521"
     inkscape:window-width="1920"
     inkscape:window-height="1017"
     inkscape:window-x="-8"
     inkscape:window-y="-8"
     inkscape:window-maximized="1"
     inkscape:current-layer="outputsvg" />
  <g
     id="l7mJDdLmYtQFjjfYrI32eqc"
     fill="rgb(216,225,224)"
     style="transform: none;">
    <g
       id="g3"
       transform="scale(1,1.382962)">
      <path
         id="p1Cz6Taf9Y"
         d="M 565,2370 C 413.21531,2478.2931 243.33102,2671.3063 0,2727.6904 -1.7364394,1967.5116 0.0134332,1292.3563 0,859 V 0 h 1596 1596 l -7,33 c -3,17 -10,68 -13,112 -5,49 -15,94 -27,115 -14,26 -18,50 -16,92 145.8703,79.03696 124.9585,238.27183 131,357 0,164.6488 -22.6156,288.18099 -70,400 -11,24 -20,54 -20,67 0,20 -5,24 -33,24 -24,0 -41,8 -62,30 -19,20 -39,30 -57,30 -21,0 -31,6 -38,25 -8,21 -16,25 -49,25 -40,0 -100,20 -123,42 -7,7 -25,21 -40,31 -22,14 -28,25 -28,54 v 36 l -107,-6 c -151,-9 -330,19 -633,98 -76,20 -166,35 -213,35 -74,0 -270,-61 -389,-121 -47,-24 -190,-59 -242,-59 -47,0 -161,33 -197,57 -15,10 -44,30 -66,45 313,405.0233 -33.55355,850.2692 -328,848 z"
         sodipodi:nodetypes="ccccccccccccsscscsccscccscsscc" />
    </g>
  </g>
  <g
     id="l4C9iI1wd9PLDlD9Bqu3bOT"
     fill="rgb(219,223,223)"
     style="transform: none;">
    <g
       style="transform: none;"
       id="g7">
      <path
         id="ppIROUHJh"
         d="M4830 4133 c-81 -47 -90 -60 -90 -125 l0 -58 -32 0 c-18 0 -45 -11 -65 -26 -31 -23 -35 -24 -55 -10 -12 9 -42 16 -67 16 l-44 0 6 -50 c5 -40 2 -58 -13 -83 -16 -25 -20 -50 -20 -117 0 -73 4 -91 25 -125 18 -30 24 -54 25 -97 0 -33 9 -79 20 -108 25 -64 25 -82 0 -105 -12 -11 -42 -61 -67 -113 -26 -52 -69 -124 -96 -161 -45 -61 -49 -70 -44 -111 4 -40 33 -98 90 -182 12 -19 8 -24 -63 -70 -25 -17 -26 -17 -65 17 -56 50 -100 49 -149 -5 -20 -22 -36 -47 -36 -55 0 -15 -9 -26 -73 -83 l-37 -32 0 -86 c0 -47 5 -94 10 -104 7 -14 6 -21 -3 -27 -25 -15 -35 -47 -42 -140 -7 -83 -6 -94 13 -121 l21 -29 -23 -34 c-16 -23 -48 -46 -99 -72 -42 -20 -81 -37 -88 -37 -6 0 -42 -14 -80 -32 -49 -23 -69 -37 -69 -50 0 -11 -7 -33 -16 -50 -9 -18 -14 -47 -12 -69 2 -22 -1 -39 -7 -40 -31 -3 -149 -7 -209 -7 -58 -1 -73 -4 -95 -25 -28 -26 -87 -42 -115 -31 -10 4 -22 18 -27 32 -9 23 -12 24 -69 18 -33 -4 -122 -22 -199 -41 -77 -19 -149 -35 -161 -35 -12 0 -28 -7 -36 -15 -14 -13 -13 -15 10 -15 27 0 36 -15 14 -22 -18 -6 16 -56 48 -70 13 -6 24 -14 24 -18 0 -4 25 -20 56 -34 40 -19 65 -25 85 -21 25 6 30 3 39 -19 7 -19 17 -26 37 -26 19 0 41 -13 70 -42 38 -38 46 -41 63 -30 18 11 20 10 20 -13 l0 -25 42 27 c39 26 47 28 138 25 78 -2 99 0 110 12 16 20 50 20 97 1 19 -8 64 -15 99 -15 l64 0 43 59 c33 47 52 63 86 75 25 9 53 16 63 16 11 0 41 9 68 21 45 19 50 20 78 5 48 -25 116 -21 160 9 34 23 43 25 114 19 l77 -7 6 39 c5 29 22 55 65 99 32 33 63 70 69 82 17 33 13 74 -9 111 l-21 34 51 58 c27 32 50 64 50 73 0 8 7 20 15 27 8 7 15 18 15 24 0 6 21 26 45 45 l45 33 76 -57 c77 -57 77 -57 131 -51 31 4 80 20 112 36 39 21 70 30 104 30 29 0 47 4 47 12 0 6 10 22 22 35 19 20 23 38 26 116 2 51 -1 119 -7 152 -9 51 -17 66 -51 96 -22 20 -40 41 -40 46 0 6 -9 18 -20 28 -11 10 -20 28 -20 41 0 12 -12 36 -26 53 -24 29 -25 33 -15 87 16 87 14 185 -5 213 -11 15 -15 34 -11 59 3 20 0 165 -7 322 -10 226 -17 293 -30 324 -15 34 -16 47 -5 108 9 51 10 78 2 101 -6 18 -14 48 -17 68 -4 21 -13 42 -21 49 -13 11 -12 16 4 39 11 15 23 39 26 54 4 15 11 30 16 33 12 7 12 86 0 117 -25 64 -93 76 -171 30z" />
    </g>
  </g>
  <g
     id="l2InxgZ5vkTe4mnO6WRMpqJ"
     fill="rgb(219,216,206)"
     style="transform: none;">
    <g
       style="transform: none;"
       id="g12">
      <path
         id="pzZeQ9Yhw"
         d="M2824 5546 c3 -29 18 -80 33 -112 19 -42 29 -84 34 -144 3 -47 11 -97 17 -111 8 -21 6 -48 -13 -125 -32 -135 -55 -258 -55 -294 0 -28 -2 -30 -40 -30 -40 0 -40 0 -40 -37 0 -48 23 -126 38 -131 7 -2 12 -12 12 -22 0 -10 16 -41 35 -69 19 -28 35 -56 35 -62 0 -6 -13 -28 -30 -49 -16 -21 -30 -42 -30 -47 0 -6 -9 -18 -21 -29 -41 -37 -62 -98 -55 -162 12 -101 16 -112 39 -112 12 0 39 -9 60 -20 23 -13 56 -20 88 -20 46 0 55 4 89 38 27 27 40 51 49 90 17 80 13 112 -19 167 -66 113 -66 112 -46 134 12 14 17 33 15 64 -3 54 11 78 78 132 48 38 51 43 56 99 5 50 11 64 41 95 20 20 36 43 36 51 0 8 14 0 35 -20 28 -27 44 -34 88 -38 56 -4 107 16 107 43 0 6 9 20 20 30 15 13 20 31 20 65 0 38 -5 51 -30 75 l-29 28 24 31 c64 79 81 96 104 96 14 0 39 5 58 12 30 11 35 10 60 -13 92 -83 155 -100 213 -59 l28 20 29 -23 c43 -37 68 -47 112 -47 36 0 48 7 107 62 36 35 75 69 85 76 10 7 19 19 19 26 0 17 31 28 100 35 l55 6 1 67 c1 44 7 76 18 92 12 19 16 49 16 111 l0 85 -826 0 -827 0 7 -54z" />
    </g>
  </g>
  <g
     id="l3QczgBrrpr6j4fpZBnBiLt"
     fill="rgb(209,212,209)"
     style="transform: none;">
    <g
       style="transform: none;"
       id="g18">
      <path
         id="pT2NOMOLU"
         d="m 4439,5588 c -1,-7 0,-39 1,-71 1,-32 -3,-63 -8,-70 -6,-7 -19,-37 -30,-68 -18,-51 -18,-59 -5,-72 24,-23 7,-37 -46,-37 -51,0 -101,-18 -101,-37 0,-6 -9,-18 -19,-25 -10,-7 -49,-41 -85,-76 -37,-34 -71,-62 -77,-62 -16,0 -50,20 -89,52 -42,34 -55,35 -102,3 -20,-14 -42,-25 -48,-25 -9,0 -51,30 -147,104 -25,19 -26,19 -69,-2 -25,-12 -57,-22 -72,-22 -19,0 -36,-11 -57,-36 -16,-19 -47,-55 -67,-78 l -37,-43 44,-43 c 50,-49 55,-68 25,-95 -11,-10 -20,-24 -20,-30 0,-7 -12,-20 -26,-30 -36,-23 -73,-12 -119,35 -45,46 -85,54 -85,18 0,-12 -16,-39 -36,-59 -31,-31 -36,-45 -41,-95 -5,-55 -8,-61 -50,-94 -25,-19 -60,-55 -79,-79 -33,-43 -33,-44 -17,-72 13,-22 14,-31 4,-43 -11,-13 -6,-15 36,-18 l 48,-3 -3,-110 c -4,-108 -3,-111 31,-180 19,-38 38,-81 42,-95 4,-14 23,-50 41,-81 19,-31 34,-61 34,-65 0,-5 11,-26 25,-47 22,-32 31,-37 63,-37 21,0 53,8 72,19 29,15 36,26 43,62 13,75 -16,196 -63,259 -25,34 -71,102 -123,186 l -26,41 112,6 c 62,4 166,9 232,11 l 120,4 80,-36 c 44,-20 91,-44 106,-53 14,-10 43,-19 65,-21 35,-3 41,-8 60,-45 12,-23 24,-50 27,-60 4,-10 15,-29 26,-43 17,-21 22,-52 32,-185 7,-88 11,-217 10,-287 -3,-110 -1,-129 13,-134 25,-10 85,-105 102,-164 12,-40 23,-56 49,-71 18,-11 49,-40 69,-63 l 36,-44 -113,-4 c -143,-5 -183,-22 -192,-80 -4,-22 -4,-64 0,-93 8,-68 -6,-96 -79,-158 -35,-30 -57,-58 -61,-77 -4,-20 -21,-40 -48,-59 -23,-16 -71,-59 -106,-97 l -64,-68 6,-88 c 3,-53 2,-90 -4,-94 -14,-8 -76,23 -83,42 -5,13 -17,15 -64,11 -109,-10 -135,-19 -144,-52 -4,-17 -7,-112 -7,-212 1,-145 4,-183 15,-183 9,0 15,-20 20,-60 5,-50 10,-60 25,-60 32,0 79,-53 79,-89 0,-28 3,-31 30,-31 h 30 l -20,-52 c -11,-28 -23,-55 -28,-60 -4,-4 -24,0 -43,9 -24,13 -56,18 -114,17 -73,0 -90,-4 -192,-49 -88,-38 -113,-53 -113,-68 0,-13 5,-17 16,-13 10,4 18,-1 21,-13 3,-11 16,-27 29,-36 21,-14 33,-14 87,-4 39,7 71,20 88,35 27,25 55,29 105,15 21,-6 38,-5 55,5 16,8 43,11 79,8 74,-8 100,10 83,56 -10,26 -9,38 7,73 10,22 17,44 15,47 -5,7 126,70 145,70 13,0 148,66 167,82 7,5 22,30 34,54 l 21,45 -25,39 -26,38 11,116 c 12,115 12,116 -12,141 -19,21 -21,25 -7,25 10,0 17,8 17,19 0,11 4,23 10,26 5,3 14,23 20,43 7,25 25,48 55,72 25,19 49,48 55,65 10,28 66,95 80,95 4,0 29,-20 56,-44 l 49,-45 47,26 c 45,25 109,79 107,92 0,3 -8,18 -17,33 -60,95 -91,149 -96,166 -4,13 8,38 41,84 27,35 68,105 92,154 24,49 56,102 70,117 31,33 33,89 6,153 -9,21 -18,69 -20,105 -2,50 -10,78 -29,111 -33,56 -36,137 -7,185 27,43 37,99 21,118 -20,25 10,19 52,-10 20,-14 39,-25 41,-25 2,0 24,15 47,34 36,28 49,33 77,29 32,-5 33,-4 35,28 0,19 0,47 -1,62 -2,16 5,37 15,48 30,33 122,81 143,74 17,-5 51,-60 51,-82 0,-16 -27,-73 -69,-145 -15,-25 -14,-29 7,-58 13,-17 26,-48 29,-68 3,-20 9,-44 14,-53 4,-8 3,-35 -3,-60 -15,-63 -11,-110 13,-171 17,-43 20,-66 16,-127 -3,-40 -1,-98 4,-130 5,-31 10,-137 10,-236 1,-142 4,-184 17,-202 11,-18 13,-38 8,-83 -3,-33 -9,-87 -12,-119 -6,-55 -4,-63 20,-91 14,-17 26,-42 26,-54 0,-13 9,-31 20,-41 11,-10 20,-22 20,-28 0,-5 18,-26 40,-46 34,-30 42,-45 51,-96 16,-86 7,-181 -20,-209 -12,-12 -21,-28 -21,-35 0,-8 -10,-10 -34,-5 -27,5 -48,-1 -98,-26 -111,-58 -118,-57 -210,11 -67.7867,66.5455 -195.5325,70.4623 -218,-27 0,-6 -7,-17 -15,-24 -8,-7 -15,-19 -15,-27 0,-8 -27,-46 -60,-84 -64,-74 -64,-77 -23,-138 28,-41 23,-53 -57,-136 -42,-44 -60,-70 -64,-98 l -7,-39 -42,8 c -65,12 -108,6 -149,-21 -44,-29 -58,-31 -100,-9 -35,18 -89,15 -158,-9 -25,-9 -70,-23 -100,-32 -49,-14 -60,-22 -97,-75 -38,-53 -47,-60 -77,-60 -18,0 -49,6 -68,14 -19,8 -57,18 -84,21 -42,6 -52,4 -68,-14 -18,-20 -27,-21 -105,-16 -71,5 -92,3 -121,-12 -44,-23 -48,-48 -19,-119 l 23,-54 -20,-68 -20,-68 42,-88 c 38,-78 41,-90 32,-118 -6,-17 -26,-44 -44,-60 -18,-16 -35,-37 -38,-46 -3,-10 -19,-23 -35,-29 -43,-16 -52,-71 -21,-130 21,-39 22,-47 10,-82 -11,-35 -10,-41 19,-93 26,-46 31,-65 31,-121 0,-36 5,-78 12,-92 l 11,-25 h 1219 1218 v 2800 2800 h -580 c -457,0 -580,-3 -581,-12 z"
         sodipodi:nodetypes="cscccssscsccsccscccccsccsscccccccccscscscccccccccccccccccccccccccccccccccccscsssccscccscccccccccccscccccccssccccscccccccscccccccsccccscsccsccccccccccssscccsccccsscccccccccccssccccccccccscccccsccccccsc" />
      <path
         id="ptmKjwjBK"
         d="M2845 2480 c-85 -9 -123 -25 -175 -74 -38 -36 -40 -41 -40 -96 0 -106 60 -138 241 -128 67 4 73 6 105 41 26 28 34 45 34 75 0 22 3 73 6 115 l7 77 -54 -1 c-30 -1 -85 -5 -124 -9z" />
    </g>
  </g>
  <g
     id="lUFtcwlSV8WW2viZSNXMyN"
     fill="rgb(208,203,188)"
     style="transform: none;">
    <g
       style="transform: none;"
       id="g23">
      <path
         id="p15DeQ3eNv"
         d="M710 5589 c0 -24 22 -49 43 -49 48 0 87 -46 96 -115 6 -39 7 -40 48 -43 33 -2 42 -8 47 -25 14 -53 36 -66 136 -79 85 -10 100 -10 129 5 52 26 67 22 85 -23 14 -36 19 -40 51 -40 22 0 35 5 35 13 0 7 11 28 25 47 14 19 25 46 25 62 0 19 15 45 48 82 42 48 51 54 87 55 34 1 48 8 78 39 20 21 37 48 37 60 l0 22 -485 0 c-337 0 -485 -3 -485 -11z" />
      <path
         id="paGtIwifb"
         d="M2039 5558 c-6 -24 -9 -70 -6 -103 9 -98 50 -114 201 -75 70 18 80 18 99 5 12 -8 41 -15 64 -15 38 0 45 4 65 35 26 40 34 42 65 16 15 -13 24 -35 29 -72 9 -70 19 -89 49 -89 13 0 27 -4 30 -10 3 -5 22 -10 41 -10 39 0 83 -40 84 -75 0 -22 45 -135 79 -200 12 -21 21 -56 21 -77 0 -52 27 -52 35 0 4 20 18 83 31 138 27 114 29 141 13 181 -7 15 -15 66 -19 113 -4 60 -14 103 -34 146 -15 33 -28 77 -29 97 l-2 37 -402 0 -402 0 -12 -42z" />
    </g>
  </g>
  <g
     id="l7DvwOTsuhAllOQwhiORdUQ"
     fill="rgb(197,196,192)"
     style="transform: none;">
    <g
       style="transform: none;"
       id="g29">
      <path
         id="pCbU3p7mZ"
         d="M2780 4583 c0 -20 -5 -62 -12 -94 l-12 -57 -38 46 c-21 26 -38 50 -38 55 0 4 -17 7 -37 5 l-38 -3 -3 -51 c-4 -73 27 -140 73 -160 20 -8 39 -22 42 -31 4 -9 2 -70 -4 -136 -9 -103 -13 -120 -32 -133 -15 -11 -21 -26 -21 -50 0 -32 4 -37 43 -54 24 -11 56 -29 72 -42 21 -16 47 -23 104 -28 42 -3 82 -9 89 -13 6 -5 12 -23 12 -41 0 -47 15 -56 97 -56 71 0 74 1 84 28 6 15 8 50 5 80 -7 61 -48 169 -71 186 -14 10 -13 15 5 51 24 48 25 78 4 111 -13 20 -16 39 -11 96 7 79 9 83 51 94 25 6 28 5 22 -14 -5 -13 3 -34 22 -63 16 -24 46 -71 67 -104 22 -33 51 -76 65 -95 33 -43 64 -141 62 -193 -2 -49 -4 -51 -47 -72 -29 -13 -39 -14 -51 -5 -12 10 -14 7 -14 -18 0 -37 14 -42 136 -42 102 0 104 1 104 80 -1 54 -77 254 -119 311 -12 15 -21 39 -21 52 0 13 -7 32 -15 43 -23 31 -18 41 27 47 23 3 53 15 67 26 14 12 36 26 49 31 12 5 22 16 22 24 0 23 -62 30 -140 17 -93 -15 -139 -14 -175 5 -16 8 -40 13 -52 9 -13 -3 -38 3 -60 15 -50 27 -75 25 -112 -6 -37 -31 -39 -55 -8 -111 12 -23 34 -64 49 -92 26 -47 27 -53 17 -103 -9 -39 -22 -63 -49 -90 -43 -43 -64 -46 -117 -18 -21 11 -48 20 -60 20 -22 0 -24 4 -37 98 -4 28 24 90 53 116 12 11 21 23 21 28 0 5 16 30 35 55 19 25 35 58 35 72 0 14 -18 52 -40 85 -22 32 -40 65 -40 72 0 16 -35 54 -50 54 -5 0 -10 -17 -10 -37z" />
      <path
         id="pWZOS6hUS"
         d="M3870 4300 c0 -50 -25 -65 -100 -62 l-65 2 -30 -42 c-33 -47 -55 -113 -55 -168 0 -42 41 -86 130 -140 46 -29 65 -34 117 -34 35 -1 63 -4 63 -7 0 -4 21 -10 48 -14 26 -3 57 -13 69 -21 12 -8 31 -14 41 -14 17 0 17 6 10 73 -4 39 -10 116 -14 170 -5 81 -10 102 -28 125 -13 15 -28 43 -35 62 -22 64 -38 80 -81 80 -21 0 -42 5 -45 10 -12 20 -25 9 -25 -20z" />
      <path
         id="pzIGRAD7Q"
         d="M3628 3670 c-14 -4 -31 -11 -37 -15 -6 -3 -40 -7 -74 -9 -50 -1 -80 -10 -140 -40 -76 -37 -77 -38 -77 -76 0 -29 6 -43 24 -57 l23 -19 -38 -18 c-35 -17 -39 -17 -54 -2 -13 12 -36 16 -105 16 -49 0 -92 5 -95 10 -17 28 -124 -3 -198 -57 -44 -32 -51 -34 -72 -23 -20 11 -25 22 -27 69 l-3 56 -62 9 c-34 5 -69 6 -77 3 -21 -8 -21 -70 -1 -87 8 -7 15 -25 15 -40 0 -74 33 -110 115 -124 22 -4 67 -17 100 -28 68 -23 158 -20 235 7 23 8 64 15 90 15 l48 0 4 -54 c3 -53 2 -55 -31 -72 -25 -14 -50 -18 -101 -15 -59 2 -134 -5 -257 -25 -31 -5 -33 -8 -33 -43 0 -34 -4 -40 -37 -54 -23 -10 -84 -19 -152 -23 -96 -6 -125 -12 -178 -35 l-63 -29 0 -53 0 -52 -63 -30 c-41 -20 -66 -39 -75 -58 -8 -16 -37 -41 -68 -58 -30 -17 -54 -34 -54 -39 0 -4 -14 -10 -30 -14 -20 -4 -34 -14 -40 -31 -9 -23 -15 -25 -65 -25 -48 0 -55 -3 -55 -19 0 -27 -14 -34 -90 -40 l-65 -6 2 -55 c0 -30 5 -75 10 -100 l8 -44 62 -11 c35 -6 72 -20 83 -30 17 -15 30 -17 92 -11 87 8 98 17 174 133 34 53 64 88 86 99 18 9 48 28 66 42 36 27 43 14 12 -25 -16 -20 -20 -41 -20 -94 l0 -69 35 0 c41 0 78 15 125 50 39 30 116 72 170 93 29 11 39 11 60 0 26 -14 98 -12 210 7 30 6 88 11 128 12 62 1 76 -2 93 -19 19 -19 20 -25 9 -84 -6 -35 -16 -99 -22 -141 l-11 -76 30 -26 c38 -32 52 -89 29 -115 -9 -10 -16 -32 -16 -49 0 -26 4 -31 26 -34 26 -3 25 -4 -16 -27 -52 -29 -121 -31 -220 -8 -108 26 -239 38 -365 35 l-120 -3 0 -45 0 -45 70 -12 c95 -18 93 -16 52 -42 -31 -19 -37 -28 -37 -57 0 -28 5 -36 28 -45 40 -16 343 -4 406 16 42 13 66 14 159 4 59 -6 116 -8 125 -5 9 4 2 -5 -15 -19 -26 -21 -33 -34 -33 -61 0 -19 3 -34 8 -34 10 0 136 29 206 48 32 9 78 31 102 49 38 30 44 39 44 71 -1 30 -3 34 -11 20 -17 -30 -39 -22 -39 13 0 37 -47 89 -80 89 -16 0 -20 7 -21 38 -1 20 0 47 1 60 1 17 -4 22 -20 22 -19 0 -21 4 -15 28 8 32 8 39 -1 167 -3 55 -2 116 3 135 8 30 15 36 49 43 21 4 51 10 66 14 20 4 30 1 34 -11 3 -8 25 -25 49 -37 62 -31 97 -18 109 40 7 30 6 49 -2 62 -26 42 -15 75 51 145 34 36 81 79 104 95 27 19 44 39 48 59 4 19 26 47 61 77 31 25 61 58 68 72 20 39 29 120 16 136 -14 17 -3 82 16 89 28 11 13 26 -25 26 -23 0 -71 -15 -124 -40 -82 -38 -87 -41 -120 -102 -19 -35 -42 -86 -51 -114 -9 -28 -28 -62 -43 -75 l-26 -24 7 25 c4 14 10 46 13 73 5 46 5 47 -23 47 -16 1 -42 11 -58 25 -28 23 -29 25 -18 63 7 22 12 50 12 63 0 25 67 136 96 160 9 7 44 16 78 20 75 7 121 37 143 91 8 20 21 39 29 42 19 7 20 122 1 139 -18 16 -55 37 -66 37 -18 0 -79 45 -84 61 -11 38 -126 61 -199 39z m-191 -1044 c9 -19 24 -37 34 -39 39 -10 15 -99 -41 -152 -17 -16 -30 -34 -30 -41 0 -6 -6 -14 -14 -17 -20 -8 -31 73 -16 119 7 20 10 63 8 95 -3 36 0 60 6 63 25 10 37 4 53 -28z" />
    </g>
  </g>
  <g
     id="l3byJvJcrPOXQcJGMd0OGAJ"
     fill="rgb(191,186,172)"
     style="transform: none;">
    <g
       style="transform: none;"
       id="g35">
      <path
         id="p1RUXL7RJ"
         d="M373 5568 c20 -118 32 -145 76 -167 20 -11 47 -31 60 -45 27 -29 94 -37 108 -13 4 8 23 17 40 20 29 6 34 3 49 -26 10 -17 19 -65 22 -105 3 -40 9 -75 14 -78 5 -3 2 -14 -7 -24 -17 -19 -17 -57 0 -150 7 -39 39 -105 66 -135 9 -11 19 -33 21 -50 3 -28 6 -30 46 -30 l42 0 0 -56 c0 -63 6 -69 65 -69 27 0 34 4 37 23 3 20 5 20 21 -10 15 -28 23 -33 55 -33 21 0 43 5 49 11 20 20 26 -40 6 -68 -10 -14 -27 -39 -38 -55 -11 -16 -31 -34 -45 -41 -32 -16 -40 -76 -15 -113 40 -61 57 -172 30 -194 -10 -8 -15 -31 -15 -66 0 -52 1 -54 27 -54 21 0 24 -3 15 -12 -7 -7 -12 -31 -12 -55 0 -42 1 -43 34 -43 29 0 39 7 70 50 20 27 53 58 75 70 24 11 65 50 98 92 32 39 77 90 101 114 40 41 42 42 36 16 -11 -45 -30 -75 -81 -127 l-50 -50 -12 -102 c-14 -108 -10 -153 13 -153 8 0 19 -14 25 -31 10 -29 12 -30 63 -27 l53 3 0 45 c0 54 14 64 99 74 46 6 59 12 68 31 10 23 48 35 116 35 32 0 32 0 32 49 0 45 2 50 29 59 24 8 31 18 37 49 4 21 19 56 33 77 22 33 26 51 26 110 0 49 -6 84 -19 111 -13 27 -18 59 -17 100 2 83 -4 89 -77 82 -33 -3 -65 -8 -71 -12 -6 -3 -11 -32 -11 -65 0 -44 -4 -59 -16 -64 -14 -5 -15 2 -10 61 4 38 2 110 -3 162 -9 87 -8 97 11 135 42 82 66 219 65 369 l-1 137 -24 0 c-22 0 -24 3 -18 31 3 17 6 35 6 39 0 4 9 10 20 13 18 5 20 14 20 96 l0 91 -74 0 -75 0 -45 -47 -45 -48 -30 18 c-30 17 -30 17 -42 -5 -6 -13 -31 -44 -55 -70 -31 -33 -44 -56 -44 -76 0 -16 -9 -41 -20 -55 -11 -14 -24 -35 -28 -48 -8 -21 -12 -17 -37 39 l-28 61 -25 -19 c-13 -11 -30 -20 -37 -20 -6 0 -26 -7 -43 -15 -20 -10 -40 -13 -59 -8 -29 7 -38 8 -85 11 -33 2 -68 55 -68 102 l0 33 -24 -22 c-35 -33 -61 -24 -59 18 1 19 -4 40 -10 48 -38 48 -68 73 -89 73 -13 0 -32 7 -42 15 -16 12 -57 15 -199 15 l-179 0 5 -32z" />
      <path
         id="pA6Q23Lfm"
         d="M1912 5563 c2 -22 -2 -38 -10 -41 -8 -2 -12 -25 -12 -63 0 -56 2 -60 33 -79 17 -11 39 -20 47 -20 20 0 67 -51 84 -92 8 -18 17 -65 21 -105 4 -42 13 -77 21 -84 8 -6 14 -30 14 -53 0 -40 28 -138 52 -183 8 -16 20 -23 40 -23 31 0 172 -101 196 -139 12 -21 61 -29 96 -15 25 9 21 86 -4 109 -19 18 -29 35 -59 108 -6 15 -11 51 -11 79 0 63 -41 140 -98 183 -24 17 -44 44 -50 62 l-10 33 48 0 c53 0 95 -26 127 -81 14 -23 24 -29 50 -29 26 0 33 4 33 19 0 15 8 21 32 23 28 3 35 9 52 51 18 44 19 50 4 75 -8 15 -19 52 -22 83 -6 51 -10 57 -48 82 -23 15 -48 27 -55 27 -6 0 -26 -20 -43 -45 -17 -25 -36 -45 -42 -45 -7 0 -29 12 -50 26 -29 21 -41 24 -52 15 -7 -6 -50 -21 -95 -32 -75 -19 -84 -19 -106 -5 -28 19 -40 76 -25 126 20 69 19 70 -76 70 l-86 0 4 -37z m348 -299 c0 -8 -4 -12 -10 -9 -5 3 -10 13 -10 21 0 8 5 12 10 9 6 -3 10 -13 10 -21z" />
      <path
         id="p3XCldy4c"
         d="M2690 5251 c0 -11 -4 -23 -10 -26 -5 -3 -10 -14 -10 -24 0 -10 -11 -23 -24 -30 -42 -23 -55 -80 -40 -172 6 -35 9 -37 63 -49 157 -35 171 -43 171 -101 0 -32 4 -39 19 -39 37 0 44 122 10 185 -34 65 -79 178 -79 200 -1 51 -100 107 -100 56z" />
    </g>
  </g>
  <g
     id="l1pB0ngTohoQ9ZolR7quqFf"
     fill="rgb(181,181,175)"
     style="transform: none;">
    <g
       style="transform: none;"
       id="g44">
      <path
         id="pkc5CcoA9"
         d="M2021 4698 c-9 -25 -99 -75 -141 -80 -27 -3 -42 -38 -16 -38 21 0 30 -43 17 -81 -9 -27 -7 -39 16 -87 18 -38 27 -72 27 -102 -1 -25 4 -48 10 -52 17 -11 104 -9 111 2 16 25 67 9 125 -39 74 -61 129 -87 210 -96 70 -8 80 -2 80 52 0 26 -11 43 -55 87 -30 30 -55 63 -55 74 0 27 -38 72 -61 72 -11 0 -29 16 -43 38 -13 20 -35 50 -49 66 -34 39 -53 78 -72 149 l-16 57 -40 0 c-32 0 -41 -4 -48 -22z" />
      <path
         id="plAGtDYW5"
         d="M3563 4415 c-85 -10 -106 -16 -132 -38 -18 -14 -48 -29 -69 -32 -49 -8 -82 -22 -82 -35 0 -6 14 -29 30 -52 17 -22 30 -52 30 -65 0 -13 11 -39 25 -57 14 -18 25 -38 25 -44 0 -6 13 -26 28 -44 16 -18 44 -66 63 -105 23 -49 40 -73 52 -73 12 0 17 -8 17 -29 0 -35 17 -50 64 -58 19 -3 43 -14 52 -24 17 -18 15 -19 -39 -19 -30 0 -62 -3 -71 -6 -12 -5 -16 0 -16 18 0 38 -30 118 -45 118 -7 0 -16 -13 -20 -29 l-6 -29 -79 1 c-87 3 -104 12 -136 75 -36 72 -79 142 -86 142 -11 0 -10 -61 2 -112 46 -202 50 -232 37 -246 -9 -8 -31 -12 -62 -10 l-49 3 32 32 c26 25 32 40 32 72 0 44 -23 59 -33 21 -4 -16 -14 -20 -49 -20 -53 0 -68 13 -68 57 0 44 -36 62 -116 60 -49 -2 -65 2 -94 23 -19 14 -52 33 -72 43 l-38 16 3 -120 c3 -117 2 -120 -20 -125 -12 -3 -27 -12 -34 -20 -6 -8 -29 -14 -50 -14 -28 0 -39 -4 -39 -15 0 -11 -12 -15 -45 -15 -33 0 -45 -4 -45 -15 0 -9 -9 -15 -24 -15 -20 0 -27 -8 -40 -47 -9 -26 -16 -55 -16 -65 0 -16 -9 -18 -79 -18 -54 0 -82 -4 -90 -14 -8 -9 -25 -12 -56 -8 l-45 5 0 -47 c0 -39 5 -53 29 -77 16 -16 40 -29 53 -29 22 0 22 -1 -7 -25 -20 -16 -43 -24 -68 -25 l-39 0 6 -97 c4 -54 9 -113 12 -130 5 -31 3 -33 -26 -33 -20 0 -30 -5 -30 -15 0 -8 -1 -15 -3 -15 -16 0 -113 43 -133 59 -17 13 -41 21 -66 21 l-38 0 6 -95 c6 -84 5 -95 -10 -95 -12 0 -16 -10 -16 -40 0 -33 -3 -40 -20 -40 -12 0 -21 -8 -24 -22 -15 -74 -17 -78 -36 -78 -21 0 -180 143 -278 250 -40 45 -61 76 -66 102 -4 23 -3 37 5 40 13 4 -8 276 -24 296 -7 8 -5 12 7 12 21 0 22 86 1 137 -19 46 -21 43 20 43 24 0 37 -6 45 -20 8 -14 21 -20 45 -20 34 0 35 1 35 43 0 23 -7 64 -15 90 -9 30 -12 65 -8 93 5 37 3 44 -11 44 -10 0 -23 16 -32 41 -10 25 -20 36 -24 29 -14 -23 -19 19 -9 80 5 34 7 65 4 70 -4 6 -24 10 -46 10 -46 0 -73 -23 -87 -74 -14 -50 -58 -103 -97 -116 -28 -9 -36 -18 -41 -46 -5 -25 -11 -34 -27 -34 -18 0 -19 -5 -14 -59 l5 -60 -31 -3 c-31 -3 -32 -4 -29 -48 3 -70 3 -92 -4 -141 -4 -36 1 -66 31 -154 33 -98 35 -114 26 -152 -14 -54 -14 -233 0 -270 18 -48 49 -73 90 -73 43 0 69 21 69 56 0 26 15 33 23 11 5 -12 35 -59 106 -165 l23 -35 -30 22 c-17 12 -45 21 -66 21 -33 0 -36 -2 -36 -29 0 -58 37 -111 170 -247 73 -74 141 -139 151 -144 25 -14 97 -12 101 2 3 8 26 1 69 -20 36 -18 81 -32 100 -32 20 0 44 -7 55 -15 10 -8 40 -15 67 -15 43 0 47 2 47 24 0 19 -4 23 -20 19 -12 -3 -29 2 -41 12 -10 10 -47 24 -82 30 -57 10 -62 13 -63 37 -1 15 -7 40 -14 57 -20 48 -8 65 41 57 55 -9 122 19 113 47 -5 16 -2 18 16 12 38 -12 90 4 100 31 6 16 20 27 40 30 16 4 30 10 30 14 0 5 24 22 54 39 31 17 60 42 68 58 9 19 35 39 82 62 l68 33 -6 49 -7 49 58 26 c58 26 130 37 251 38 34 0 62 3 62 7 0 5 27 18 60 30 33 12 60 25 60 28 0 4 -13 12 -30 18 -69 26 -27 39 183 59 26 3 65 0 86 -6 35 -9 43 -7 97 25 32 19 63 35 70 35 29 0 23 21 -10 37 -44 21 -45 38 -5 79 l30 31 -101 6 c-77 4 -110 2 -137 -9 -75 -32 -137 -36 -200 -15 -32 11 -76 23 -98 27 -82 14 -115 50 -115 124 0 15 -7 33 -15 40 -23 19 -5 29 40 21 l40 -6 3 -54 c6 -98 67 -116 160 -47 53 39 126 68 139 55 4 -4 50 -10 102 -12 56 -3 96 -9 100 -16 4 -7 21 -15 37 -20 23 -6 35 -3 59 15 17 12 35 22 40 21 6 -1 11 13 13 31 3 26 -2 38 -22 53 -14 11 -26 24 -26 29 0 4 35 25 77 46 65 32 86 38 136 37 36 -1 67 3 81 12 38 25 91 28 131 9 21 -10 40 -25 42 -33 5 -16 66 -61 84 -61 11 0 48 -21 66 -37 18 -16 17 -72 -1 -79 -8 -3 -21 -22 -29 -42 -22 -54 -68 -84 -143 -91 -34 -4 -69 -13 -78 -20 -30 -25 -96 -136 -96 -161 0 -14 -7 -47 -15 -74 -8 -27 -15 -55 -15 -63 0 -24 62 -73 93 -73 24 0 28 -3 22 -17 -3 -10 -8 -30 -11 -45 -14 -92 -16 -84 24 -80 49 6 78 34 98 96 17 55 78 171 94 181 21 13 9 25 -24 25 -26 0 -41 7 -59 30 -20 23 -34 30 -61 30 -30 0 -35 -3 -38 -27 -4 -31 -28 -44 -28 -15 0 24 46 113 68 130 9 6 42 12 74 12 66 0 118 22 159 67 24 26 27 38 33 138 4 81 2 120 -7 148 -16 44 -59 77 -100 77 -31 0 -67 16 -67 29 0 5 38 6 84 4 102 -7 136 0 136 27 0 15 7 20 25 20 23 0 25 4 25 40 0 55 -31 85 -96 95 -40 5 -54 13 -76 42 l-27 35 -16 -31 c-13 -27 -20 -30 -42 -25 -40 10 -135 70 -172 108 -32 33 -32 34 -20 82 7 26 26 67 43 90 34 47 61 54 110 29 38 -20 56 -19 56 5 0 12 12 26 30 35 l30 16 -19 38 c-16 31 -34 45 -98 75 -128 62 -135 64 -250 51z" />
      <path
         id="p17FaegqCr"
         d="M3326 2681 c-50 -8 -54 -21 -16 -46 38 -25 46 -53 30 -111 -18 -62 -7 -166 21 -205 l21 -31 24 42 c13 23 42 62 64 87 24 28 42 59 46 82 3 20 10 49 15 66 8 24 6 32 -8 42 -9 7 -22 13 -28 13 -6 0 -19 16 -28 35 -15 32 -20 35 -59 34 -24 -1 -61 -5 -82 -8z" />
      <path
         id="pnaDr8nhv"
         d="M2873 2497 c-67 -9 -73 -12 -73 -33 0 -20 4 -23 28 -19 15 2 58 7 96 10 l69 6 -7 -32 c-3 -17 -6 -56 -6 -85 0 -47 -4 -59 -33 -90 -37 -41 -81 -51 -173 -39 -46 5 -63 13 -86 37 -41 44 -37 77 14 127 24 22 46 41 50 41 5 0 8 5 8 10 0 17 -76 11 -122 -9 -24 -11 -65 -34 -93 -53 -44 -29 -50 -38 -53 -72 -7 -89 91 -128 323 -130 135 -1 142 0 199 28 l58 29 -7 96 c-4 53 -10 98 -14 101 -4 3 -11 23 -16 45 -10 38 -12 40 -50 41 -22 1 -73 -3 -112 -9z" />
      <path
         id="p1E0zQf6He"
         d="M3981 2409 c-17 -17 -31 -39 -31 -50 0 -10 -7 -19 -15 -19 -9 0 -20 -12 -26 -27 -9 -24 -7 -29 22 -52 l31 -24 -6 -84 c-4 -46 -4 -88 0 -94 11 -18 24 11 24 53 0 49 17 83 46 97 29 13 30 24 3 68 -17 28 -21 46 -17 99 2 35 3 64 2 64 -1 0 -16 -14 -33 -31z" />
      <path
         id="p4oSAj1Z3"
         d="M3114 2250 c-20 -27 -51 -50 -101 -74 -69 -34 -73 -37 -73 -69 0 -18 6 -39 13 -46 10 -11 6 -12 -18 -7 -16 3 -48 8 -69 12 -21 4 -78 23 -125 42 -47 19 -104 38 -126 43 -22 4 -67 19 -100 33 -33 14 -77 26 -97 26 -36 0 -38 -2 -38 -31 0 -47 36 -101 85 -129 l43 -25 -156 1 c-86 0 -176 4 -199 8 -24 4 -56 5 -73 1 -28 -6 -30 -10 -30 -51 0 -40 3 -46 43 -73 23 -17 54 -39 69 -50 29 -23 97 -28 116 -9 9 9 15 9 24 0 7 -7 29 -12 50 -12 35 0 38 -2 38 -29 0 -17 -4 -33 -10 -36 -14 -9 -12 -101 3 -112 16 -13 98 -26 167 -26 174 1 250 4 295 12 112 22 223 41 278 47 47 6 57 10 57 25 0 12 -7 19 -20 19 -10 0 -30 5 -44 11 -21 10 -44 7 -123 -12 -79 -19 -125 -24 -235 -24 -168 0 -186 9 -104 55 31 18 56 35 56 40 0 19 -38 35 -114 50 -57 11 -81 20 -81 30 0 10 9 14 25 13 14 -1 62 0 108 4 60 4 82 9 82 19 0 19 11 18 147 -11 89 -19 148 -25 241 -25 123 0 124 0 153 29 21 22 29 39 29 66 l0 36 -37 -26 c-45 -30 -63 -33 -38 -5 15 16 17 31 12 82 -5 54 -10 67 -36 90 -29 26 -30 29 -22 77 8 48 7 51 -14 51 -13 0 -32 -15 -51 -40z m-530 -245 c20 -8 36 -17 36 -20 0 -4 -80 24 -89 32 -11 8 20 1 53 -12z m86 -35 c13 -9 13 -10 0 -10 -8 0 -22 5 -30 10 -13 9 -13 10 0 10 8 0 22 -5 30 -10z" />
    </g>
  </g>
  <g
     id="l5eSaQow9hUagUe0GXSyTrg"
     fill="rgb(185,178,167)"
     style="transform: none;">
    <g
       style="transform: none;"
       id="g49">
      <path
         id="p7cGFbe7z"
         d="M1997 5396 c-4 -10 -7 -27 -7 -39 -1 -25 -22 -57 -38 -57 -25 0 -44 -48 -37 -92 4 -24 8 -90 9 -148 2 -139 0 -132 43 -128 33 3 37 7 48 43 11 36 12 32 7 -48 -5 -79 -3 -91 16 -117 12 -16 22 -36 22 -45 0 -9 11 -31 24 -48 13 -18 34 -57 47 -87 12 -30 33 -66 46 -80 12 -14 38 -51 57 -82 18 -31 49 -75 67 -97 30 -36 39 -41 76 -41 40 0 44 3 64 42 18 36 21 53 16 112 -5 57 -10 73 -29 87 -12 10 -19 21 -15 25 10 10 75 -13 106 -37 13 -11 39 -19 57 -19 32 0 34 2 34 34 0 24 -9 43 -35 71 -20 20 -34 39 -33 41 9 8 81 -25 106 -49 16 -15 38 -27 50 -27 15 0 30 -13 47 -40 27 -42 64 -55 66 -22 1 9 2 24 3 32 1 8 -4 35 -11 60 -7 25 -13 47 -13 50 0 3 17 5 37 5 37 0 38 1 41 39 4 45 -39 116 -69 116 -10 0 -41 14 -67 30 -27 17 -54 30 -59 30 -5 0 -20 11 -33 25 l-23 25 26 0 c17 0 27 5 27 15 0 8 -6 15 -14 15 -19 0 -30 80 -15 113 6 13 22 31 35 38 13 7 24 20 24 29 0 9 4 20 9 25 5 6 12 25 16 43 6 31 5 32 -24 32 -16 0 -33 5 -36 10 -3 6 -17 10 -31 10 -14 0 -27 7 -31 16 -4 10 -12 -2 -23 -36 -23 -69 -36 -80 -56 -52 -20 29 -34 19 -34 -25 l0 -36 -30 41 c-40 56 -73 75 -126 74 -35 0 -44 3 -44 17 0 19 -39 61 -57 61 -29 0 -31 -90 -3 -145 11 -22 20 -44 20 -50 0 -5 19 -23 41 -40 55 -41 96 -116 98 -180 1 -66 28 -141 65 -183 26 -29 28 -49 8 -57 -11 -4 -25 4 -42 24 -14 16 -47 46 -75 66 -27 20 -60 48 -71 62 -19 22 -24 24 -44 13 -20 -10 -25 -10 -34 6 -23 39 -55 150 -56 190 0 23 -6 47 -14 53 -8 7 -17 42 -21 84 -8 80 -24 128 -55 160 -11 12 -26 31 -33 41 -13 17 -14 18 -20 2z" />
      <path
         id="pashNAQWZ"
         d="M4122 3437 c-14 -15 -22 -36 -22 -60 0 -29 -10 -48 -50 -96 -63 -76 -92 -91 -174 -91 -56 0 -67 -3 -80 -22 -18 -26 -21 -84 -5 -93 5 -4 14 -18 19 -31 12 -32 42 -28 145 21 44 20 94 41 110 45 17 5 50 16 75 25 57 21 199 16 248 -9 18 -9 32 -15 32 -13 0 44 -97 171 -157 207 -24 14 -35 32 -50 77 -15 49 -22 58 -43 61 -17 2 -33 -5 -48 -21z" />
    </g>
  </g>
  <g
     id="l4ACHjNwp4WIndH3LISCMjp"
     fill="rgb(170,167,156)"
     style="transform: none;">
    <g
       style="transform: none;"
       id="g60">
      <path
         id="psllcOLBd"
         d="M120 5570 c0 -23 14 -43 61 -90 58 -58 64 -61 104 -59 53 4 68 -8 105 -82 30 -59 68 -96 104 -104 12 -2 42 -7 69 -10 52 -7 56 -15 27 -52 -12 -16 -20 -41 -20 -64 0 -32 5 -41 30 -54 42 -22 78 -19 111 9 15 13 32 26 36 28 4 1 19 15 32 31 l24 27 -20 23 c-15 16 -22 40 -25 94 -4 54 -12 83 -32 117 -30 51 -44 56 -71 26 -11 -12 -25 -18 -34 -15 -9 4 -22 -3 -32 -17 l-17 -22 -40 36 c-22 20 -49 39 -61 43 -23 7 -51 52 -51 81 0 10 -5 33 -12 51 l-12 33 -138 0 -138 0 0 -30z" />
      <path
         id="pszjf20dF"
         d="M1780 5524 c0 -65 -3 -77 -18 -81 -13 -3 -23 -20 -30 -55 -19 -78 -17 -88 18 -88 28 0 29 -2 24 -32 -3 -18 -7 -38 -9 -44 -2 -7 18 -14 53 -17 31 -3 75 -9 96 -13 35 -6 39 -5 32 11 -7 20 17 65 36 65 21 0 37 35 38 82 0 44 -14 72 -22 46 -3 -8 -14 -6 -39 8 -26 15 -35 28 -37 52 -3 27 1 32 23 38 14 3 24 11 21 18 -3 6 -10 28 -17 49 l-12 37 -79 0 -78 0 0 -76z" />
      <path
         id="pvuLYT5jH"
         d="M1750 4963 c-15 -61 -51 -143 -62 -143 -4 0 -9 17 -9 38 l-1 37 -9 -40 c-4 -22 -8 -53 -8 -70 l0 -30 14 25 c14 25 14 25 15 -15 1 -22 3 -58 6 -80 3 -22 6 -93 7 -157 1 -64 7 -121 12 -127 7 -6 21 0 42 19 28 25 33 37 37 87 l4 58 53 12 c30 7 64 11 77 8 20 -5 22 -2 22 37 0 23 -6 49 -14 57 -8 9 -18 32 -23 51 -8 30 -14 35 -41 38 -29 3 -31 5 -21 24 7 13 9 46 4 94 -6 69 -8 73 -33 76 -19 2 -28 10 -30 26 -6 38 -29 24 -42 -25z" />
      <path
         id="p1FcHFXZq3"
         d="M734 4975 c-4 -11 -21 -15 -55 -15 l-49 0 0 -63 c0 -71 18 -107 54 -107 31 0 46 -18 46 -55 0 -18 9 -43 20 -56 12 -12 30 -38 42 -57 18 -30 24 -33 61 -30 35 3 42 7 47 28 6 25 6 25 18 -7 l11 -33 75 0 76 0 0 38 c0 42 -54 146 -73 139 -6 -2 -16 -21 -21 -43 -11 -47 -9 -46 -30 -38 -21 8 -22 77 -1 94 21 17 19 51 -3 57 -10 2 -26 16 -35 31 l-16 27 -1 -37 c0 -26 -6 -40 -19 -47 -23 -13 -31 -5 -31 29 0 15 -8 34 -18 43 -10 9 -29 39 -42 66 -25 51 -46 64 -56 36z" />
      <path
         id="pjcRPa48F"
         d="M2440 4840 c0 -12 16 -44 35 -73 22 -32 35 -64 35 -84 0 -22 10 -42 35 -69 39 -41 41 -52 4 -26 -13 9 -39 24 -56 33 l-33 17 0 -32 c1 -21 15 -49 43 -86 39 -49 47 -55 85 -58 36 -3 42 0 42 17 0 11 5 23 10 26 6 3 10 2 10 -2 0 -7 22 -36 96 -126 20 -24 44 -6 44 33 0 15 6 47 13 71 15 50 12 64 -31 124 -18 25 -36 40 -49 40 -12 0 -34 12 -50 26 -15 14 -48 32 -72 39 -30 10 -52 26 -70 50 -37 51 -79 100 -85 100 -3 0 -6 -9 -6 -20z" />
      <path
         id="pAUUrWVam"
         d="M2430 4460 c0 -12 -9 -39 -21 -61 -16 -31 -25 -40 -40 -36 -29 8 -24 -22 19 -112 38 -80 42 -104 16 -94 -22 8 -17 -27 7 -53 11 -12 28 -37 37 -55 14 -29 24 -35 60 -40 25 -3 53 -15 70 -31 50 -46 75 -58 125 -58 l48 0 -31 29 c-31 28 -31 29 -13 42 22 15 38 65 24 73 -4 3 -11 26 -14 51 -4 25 -16 63 -27 85 -11 21 -20 48 -20 59 0 13 -20 35 -54 60 -35 26 -59 53 -69 79 -24 60 -117 109 -117 62z" />
      <path
         id="pGBHass13"
         d="M1527 4452 c-10 -10 -17 -23 -17 -28 0 -37 -28 -91 -68 -133 -26 -27 -73 -81 -105 -120 -33 -41 -75 -80 -98 -91 -22 -12 -55 -43 -75 -71 -42 -58 -58 -57 -25 2 27 47 16 73 -25 63 -20 -5 -24 -2 -24 18 0 13 5 29 12 36 9 9 5 12 -20 12 -32 0 -32 -1 -32 -48 0 -43 -4 -52 -36 -80 l-37 -33 5 -77 c2 -42 9 -86 15 -97 15 -27 31 -145 21 -151 -24 -15 12 -189 37 -181 20 7 30 56 17 90 -18 45 -18 49 -5 54 6 2 21 -5 32 -16 25 -25 51 -27 51 -6 0 9 -9 41 -20 72 -25 71 -25 71 3 75 12 2 23 10 23 18 1 8 2 23 3 32 1 9 15 21 35 28 40 13 84 65 98 116 12 45 44 78 66 69 9 -4 23 -9 30 -12 8 -4 12 6 12 32 0 32 8 45 51 89 28 28 57 62 64 76 15 31 44 153 46 200 4 82 -3 96 -34 62z" />
      <path
         id="p1FkMMF4KX"
         d="M4033 3750 c-7 -37 -32 -45 -116 -36 -86 10 -139 25 -154 44 -11 15 -12 11 -13 -25 0 -34 5 -45 23 -54 12 -7 32 -23 44 -36 14 -15 33 -23 55 -23 45 0 89 -31 103 -73 14 -40 8 -195 -7 -214 -8 -10 -3 -13 20 -13 30 0 47 22 66 87 4 11 13 27 21 33 13 11 15 3 15 -54 0 -59 2 -66 20 -66 16 0 20 7 20 33 0 34 33 77 58 77 7 0 12 3 12 6 0 15 -71 112 -85 118 -14 5 -15 20 -10 102 6 105 0 124 -41 124 -19 0 -26 -7 -31 -30z" />
    </g>
  </g>
  <g
     id="l5Kj56G9nkoZ60zt6uwg1N7"
     fill="rgb(160,158,149)"
     style="transform: none;">
    <g
       style="transform: none;"
       id="g71">
      <path
         id="pbizCWi1q"
         d="M1788 5244 c-25 -8 -32 -47 -18 -98 9 -34 9 -56 0 -97 -18 -79 -11 -113 21 -117 24 -3 27 -8 32 -50 3 -30 1 -54 -7 -67 -23 -36 -24 -63 -5 -94 23 -38 35 -39 43 -6 8 33 22 24 30 -19 4 -19 13 -39 21 -46 8 -7 15 -23 15 -36 0 -25 21 -45 28 -26 2 6 24 22 49 34 25 12 49 33 54 45 14 37 27 27 44 -34 19 -71 38 -110 72 -149 14 -16 36 -46 49 -66 14 -22 32 -38 43 -38 23 0 61 -45 61 -72 0 -17 99 -128 115 -128 11 0 4 41 -16 95 -12 33 -40 76 -68 106 -27 29 -63 77 -82 108 -18 31 -45 70 -59 86 -15 17 -37 55 -49 85 -13 30 -34 69 -47 87 -13 17 -24 39 -24 48 0 9 -8 27 -19 40 -15 21 -17 37 -13 118 4 81 2 95 -13 100 -27 11 -54 -11 -61 -48 -3 -19 -10 -37 -14 -40 -15 -9 -18 22 -11 110 10 133 -7 157 -124 170 -16 2 -38 1 -47 -1z" />
      <path
         id="p18KENxhpJ"
         d="M695 4699 c-25 -64 -31 -72 -70 -89 -24 -10 -46 -23 -49 -29 -4 -6 -14 -11 -22 -11 -9 0 -34 -15 -57 -34 -23 -19 -55 -36 -72 -38 -25 -2 -31 -8 -33 -32 -11 -92 113 -173 152 -98 31 60 41 63 159 50 104 -11 108 -11 130 10 13 12 36 22 51 22 25 0 76 38 76 58 0 12 67 42 96 42 16 0 28 8 36 25 6 14 15 25 20 25 4 0 8 17 8 37 0 29 -3 34 -12 25 -19 -19 -26 -15 -48 28 -19 36 -44 59 -54 49 -2 -2 7 -26 20 -54 33 -70 31 -75 -21 -75 -41 0 -46 3 -58 33 -16 35 -53 74 -64 64 -3 -4 -9 -23 -12 -44 -8 -48 -24 -52 -49 -11 -12 19 -30 45 -42 57 -11 13 -20 32 -20 43 0 11 -7 18 -18 18 -14 0 -26 -19 -47 -71z" />
      <path
         id="pTNCvTqae"
         d="M1017 4433 c-4 -3 -7 -24 -7 -45 0 -38 0 -38 -40 -38 -82 0 -105 -80 -55 -188 30 -65 31 -93 5 -117 -21 -19 -28 -79 -10 -90 6 -3 10 -26 10 -49 0 -24 7 -57 15 -72 8 -16 15 -48 15 -72 0 -24 8 -57 17 -75 9 -18 19 -50 22 -72 5 -34 10 -40 32 -43 23 -3 26 0 22 21 -4 18 2 29 18 41 23 15 23 17 6 45 -9 15 -19 55 -23 87 -4 33 -11 64 -16 70 -5 7 -11 35 -15 63 -5 48 -4 52 31 82 32 29 36 38 36 79 0 34 5 52 19 64 30 27 35 85 15 158 -9 35 -26 78 -36 96 -16 26 -18 35 -8 47 11 13 8 15 -17 15 -16 0 -33 -3 -36 -7z" />
      <path
         id="pC7Y0djOv"
         d="M2016 4294 c-6 -16 -18 -16 -73 1 -18 6 -23 3 -23 -12 0 -10 -11 -34 -24 -53 -12 -19 -26 -52 -30 -73 -6 -31 -13 -41 -37 -49 -27 -9 -29 -14 -29 -59 0 -51 -7 -57 -41 -38 -16 8 -25 7 -39 -6 -14 -12 -23 -14 -37 -7 -15 9 -19 5 -28 -21 -9 -29 -15 -33 -70 -43 -106 -20 -107 -20 -103 -73 3 -41 1 -46 -18 -49 -37 -5 -45 -81 -18 -171 24 -82 12 -81 -41 5 -34 54 -51 73 -53 61 -2 -10 1 -32 7 -49 20 -56 10 -63 -31 -25 l-26 24 -5 -48 c-5 -38 -1 -61 17 -101 13 -29 26 -65 29 -79 10 -40 79 -83 135 -83 44 -1 47 1 50 25 3 23 9 28 38 31 30 3 39 0 55 -24 16 -21 28 -28 55 -28 33 0 34 1 34 43 0 24 -10 63 -22 88 -11 24 -24 59 -28 77 -8 31 -7 32 26 32 28 0 34 4 34 23 0 12 7 31 15 41 8 11 15 31 15 46 0 24 3 25 40 22 l40 -4 0 51 c0 32 7 65 20 88 l20 38 54 -58 c44 -46 60 -57 86 -57 l32 0 -4 50 c-3 50 -3 50 27 50 45 0 55 16 55 89 0 115 -37 211 -80 211 -10 0 -23 7 -30 15 -7 8 -21 15 -32 15 -17 0 -18 3 -8 15 7 8 23 15 36 15 21 0 24 5 24 35 0 38 -4 44 -14 19z" />
      <path
         id="pxfbTbq0Y"
         d="M3396 4092 c-3 -5 9 -38 25 -73 31 -64 82 -236 82 -274 0 -11 -3 -28 -8 -38 -7 -17 -4 -18 41 -10 95 16 260 -5 299 -37 7 -6 44 -17 83 -25 39 -8 83 -19 97 -25 35 -13 35 -13 35 9 0 24 -11 28 -124 46 -88 14 -92 16 -133 60 -23 25 -49 45 -59 45 -10 0 -28 10 -42 22 -13 13 -37 23 -53 24 -42 2 -61 21 -48 46 15 28 4 50 -23 43 -20 -5 -27 3 -57 67 -47 99 -96 150 -115 120z" />
      <path
         id="pJ62jywtb"
         d="M91 3648 c85 -120 196 -232 289 -288 65 -39 212 -165 340 -291 77 -76 92 -97 150 -211 35 -71 67 -128 72 -128 14 0 8 113 -7 140 -8 14 -14 36 -15 51 0 32 -22 79 -36 79 -12 0 -42 31 -124 130 -25 30 -79 88 -120 129 -42 42 -93 97 -114 124 -21 26 -46 47 -55 47 -9 0 -43 22 -76 48 -33 27 -74 56 -90 65 -17 8 -61 43 -100 76 -55 48 -77 61 -103 61 l-33 0 22 -32z" />
      <path
         id="p4YYkvmhy"
         d="M2076 3523 c-3 -32 -9 -91 -12 -131 -4 -40 -12 -75 -18 -79 -14 -9 -89 -4 -100 8 -6 5 -36 9 -67 9 l-57 0 -7 -40 -7 -40 -36 30 c-24 20 -48 30 -69 30 -31 0 -33 -2 -33 -34 0 -73 23 -140 67 -199 23 -31 43 -68 43 -82 0 -24 -1 -24 -35 -9 -19 7 -59 14 -88 14 l-54 0 -7 -46 c-3 -26 -6 -71 -6 -100 0 -45 5 -59 30 -87 20 -23 30 -45 30 -66 0 -23 5 -31 18 -31 10 0 27 -7 38 -15 10 -8 22 -15 25 -15 5 0 32 73 35 95 0 5 2 16 2 24 2 9 10 11 28 7 26 -7 27 -7 22 38 -5 44 6 63 18 31 6 -15 94 -68 94 -56 0 4 -20 27 -45 51 -47 47 -58 89 -34 128 9 14 8 26 -5 50 -19 37 -10 41 28 11 38 -30 221 -98 233 -86 2 3 -6 16 -19 29 l-23 23 32 3 c38 4 44 17 33 68 -5 22 -8 59 -8 84 1 25 -2 60 -6 78 -7 32 -7 32 29 32 23 0 48 9 69 25 18 14 38 25 44 25 14 0 27 44 17 60 -4 6 -20 8 -40 4 -29 -5 -39 -2 -65 24 -34 34 -45 79 -12 49 26 -23 45 -21 72 8 13 14 29 25 37 25 24 0 13 28 -14 35 -15 3 -44 22 -65 41 -28 24 -47 34 -72 34 -33 0 -34 0 -40 -57z" />
      <path
         id="pVV0Xvd0Q"
         d="M2343 2496 c-19 -16 -44 -62 -73 -131 -36 -85 -53 -113 -83 -137 -33 -27 -38 -35 -35 -67 l3 -36 45 3 c143 8 162 6 182 -22 16 -21 28 -26 61 -26 l41 0 -22 20 c-12 11 -29 34 -38 51 -15 30 -15 31 8 24 13 -4 47 -18 77 -31 68 -30 111 -32 111 -4 0 11 -5 20 -11 20 -6 0 -28 13 -48 29 -20 16 -59 39 -86 52 -28 13 -52 25 -54 26 -2 1 8 18 23 37 16 21 26 47 26 67 0 29 -1 31 -17 17 -15 -12 -67 -38 -77 -38 -10 0 3 92 15 107 7 10 20 28 27 41 11 21 10 22 -17 22 -17 0 -42 -11 -58 -24z" />
    </g>
  </g>
  <g
     id="l3X1jP5jGBmUaZxTbNiI4Md"
     fill="rgb(159,155,139)"
     style="transform: none;">
    <g
       style="transform: none;"
       id="g75">
      <path
         id="pdJXwGrCn"
         d="M0 5232 l0 -369 28 -13 c15 -7 54 -15 87 -17 l60 -5 23 40 c12 22 22 47 22 56 0 12 10 16 39 16 22 0 42 4 45 9 3 4 38 11 78 15 40 4 77 11 82 16 6 6 21 10 34 10 19 0 23 -4 16 -17 -4 -10 -9 -50 -12 -90 -4 -62 -1 -76 18 -102 16 -24 29 -31 54 -31 38 0 76 34 76 68 0 12 4 22 9 22 5 0 6 20 3 45 -4 40 -3 45 16 45 12 0 24 -5 27 -10 7 -11 45 5 57 24 11 17 9 66 -4 102 -10 29 -9 35 15 64 15 17 27 36 27 41 0 17 -44 9 -65 -11 -11 -11 -33 -31 -50 -44 -27 -22 -32 -23 -57 -10 -34 18 -34 19 -3 65 22 30 25 43 19 78 -6 39 -17 51 -28 33 -9 -14 -105 3 -134 24 -15 11 -41 47 -59 80 -17 32 -44 69 -59 82 -25 22 -37 23 -75 7 -12 -4 -34 11 -78 55 -33 33 -61 67 -61 75 0 12 -16 15 -75 15 l-75 0 0 -368z" />
    </g>
  </g>
  <g
     id="l6UNaanrzZKDC5PirtjUvXm"
     fill="rgb(148,148,142)"
     style="transform: none;">
    <g
       style="transform: none;"
       id="g85">
      <path
         id="ppYYYHZsw"
         d="M2310 4727 c0 -26 77 -184 93 -190 8 -3 17 -24 21 -47 5 -33 13 -45 42 -62 22 -13 41 -35 51 -60 10 -26 34 -53 69 -79 34 -25 54 -47 54 -60 0 -11 9 -38 20 -59 11 -22 23 -60 27 -85 3 -29 12 -49 23 -55 21 -11 30 5 30 55 0 19 5 56 10 82 6 28 7 73 3 108 -8 57 -10 61 -46 78 -38 18 -63 58 -81 130 -6 23 -9 27 -21 17 -19 -16 -27 -10 -90 76 -30 41 -59 74 -63 74 -4 0 -14 -6 -20 -12 -10 -10 -24 0 -67 47 -37 41 -54 54 -55 42z" />
      <path
         id="p1AKThiJbj"
         d="M3093 4173 c-3 -10 -14 -36 -24 -59 -23 -48 -25 -102 -5 -110 24 -9 68 -133 68 -191 0 -50 -2 -54 -69 -123 -47 -49 -88 -81 -131 -102 -39 -19 -80 -50 -107 -81 -45 -49 -50 -62 -39 -91 9 -23 24 -20 59 13 60 58 171 141 226 171 41 22 70 30 106 30 37 0 55 5 68 20 17 19 17 24 -8 127 -15 60 -27 118 -27 130 0 38 -91 283 -106 283 -2 0 -7 -8 -11 -17z" />
      <path
         id="pklKV3iFu"
         d="M2590 3982 c0 -29 7 -45 29 -66 l30 -29 -36 -33 c-33 -31 -39 -33 -113 -35 -84 -2 -108 8 -157 65 -18 20 -32 26 -63 26 l-40 0 0 -74 0 -74 46 -40 c34 -29 51 -53 64 -92 21 -63 18 -78 -18 -82 -16 -2 -31 -13 -38 -27 -7 -13 -18 -27 -25 -32 -10 -6 -7 -13 12 -28 29 -24 33 -25 48 -7 10 12 19 12 57 -6 25 -11 48 -18 50 -15 2 2 -2 20 -11 39 -13 32 -13 41 1 82 14 40 18 45 35 36 10 -6 19 -15 19 -20 0 -16 27 -12 34 5 3 8 -1 21 -9 29 -8 8 -15 17 -15 20 0 10 39 6 45 -4 3 -5 10 -10 15 -10 15 0 40 31 34 42 -5 8 3 9 24 5 21 -4 37 -1 54 12 13 10 33 22 46 25 22 7 23 12 21 84 -2 49 2 89 11 109 13 30 13 34 -5 48 -11 8 -28 15 -37 15 -9 0 -37 16 -62 35 l-46 35 0 -38z" />
      <path
         id="pTdEYirZ1"
         d="M993 3565 c3 -41 2 -77 -2 -80 -5 -2 -16 -33 -26 -67 -9 -35 -26 -77 -36 -94 -10 -17 -19 -38 -19 -47 0 -8 -11 -29 -25 -45 -16 -19 -25 -42 -25 -64 0 -18 -9 -50 -20 -71 -11 -20 -20 -52 -20 -70 0 -21 8 -41 20 -52 11 -10 20 -14 21 -9 0 5 5 -2 11 -16 6 -14 10 -33 9 -43 -4 -32 51 -18 70 18 30 59 59 100 60 85 0 -8 0 -54 -1 -102 -1 -58 3 -88 10 -88 6 0 33 -20 59 -45 38 -36 55 -45 84 -45 33 0 38 -4 74 -67 34 -59 43 -68 70 -71 l32 -3 -24 48 c-12 26 -21 50 -20 52 5 5 64 -36 100 -70 32 -30 166 -111 173 -105 8 8 -22 52 -72 104 -51 54 -101 124 -173 239 -21 35 -45 63 -54 63 -9 0 -24 9 -34 20 -29 32 -38 24 -32 -25 3 -32 0 -50 -10 -60 -20 -21 -28 -19 -57 15 -40 48 -43 94 -20 305 5 41 -1 71 -31 159 -30 89 -35 114 -26 133 16 35 14 54 -14 108 -13 27 -22 52 -19 57 3 4 -5 8 -17 8 -21 0 -22 -3 -16 -75z" />
      <path
         id="p1vEWru9W"
         d="M1314 3523 c3 -16 9 -44 13 -63 l6 -34 -26 17 c-15 10 -27 14 -27 10 0 -9 21 -75 30 -93 4 -9 11 -58 14 -110 4 -52 10 -103 13 -113 4 -16 2 -17 -15 -8 -47 25 -52 13 -21 -45 16 -31 29 -62 29 -69 0 -19 28 -26 92 -24 68 2 78 -3 78 -47 0 -28 9 -43 47 -79 26 -25 55 -45 65 -45 11 0 16 5 13 11 -4 6 -4 39 0 73 l6 62 38 -2 c21 -1 52 -9 69 -18 47 -24 64 -21 60 12 -2 21 -13 32 -48 49 -59 29 -95 66 -130 133 -15 30 -38 64 -50 75 -12 10 -37 52 -56 91 -24 50 -41 74 -57 78 -32 8 -87 62 -87 85 0 12 -5 21 -11 21 -5 0 -15 14 -20 30 -14 38 -34 40 -25 3z" />
      <path
         id="p82ZPIamt"
         d="M723 2298 c-50 -53 -56 -128 -17 -207 29 -57 29 -54 0 -211 -21 -110 -20 -166 3 -215 22 -49 101 -138 154 -174 22 -14 51 -34 66 -44 35 -23 149 -57 195 -57 28 0 36 4 36 19 0 13 -9 20 -34 24 -62 10 -147 59 -182 106 -19 24 -34 51 -34 61 0 19 -46 63 -75 70 -13 4 -21 16 -23 35 -2 16 -15 43 -29 59 -27 32 -27 54 -7 243 6 55 3 70 -20 118 -29 61 -31 77 -15 106 5 11 9 36 7 55 l-3 36 -22 -24z" />
      <path
         id="pq2bVJ4ja"
         d="M3611 1840 c-11 -44 -23 -64 -63 -102 -27 -26 -66 -52 -86 -59 -20 -6 -57 -20 -81 -31 -24 -11 -60 -22 -80 -25 l-36 -6 37 39 c68 71 138 154 138 164 0 15 -26 12 -39 -4 -14 -17 -152 -88 -159 -82 -2 2 14 21 35 41 29 28 32 34 13 24 -14 -6 -36 -19 -50 -29 -14 -9 -45 -24 -70 -32 -25 -9 -76 -28 -115 -42 -43 -16 -91 -26 -125 -26 -57 0 -250 -42 -307 -66 -34 -14 -47 -43 -41 -85 3 -23 6 -24 113 -26 78 -2 115 1 130 11 11 7 47 16 80 19 33 3 70 8 83 12 18 6 22 4 22 -13 0 -18 5 -20 38 -15 20 3 80 23 132 45 184 77 209 80 294 38 24 -12 52 -20 62 -19 28 6 62 84 80 183 19 109 15 169 -5 86z" />
    </g>
  </g>
  <g
     id="l49XZf3nemty5pF34PE8xKO"
     fill="rgb(148,145,132)"
     style="transform: none;">
    <g
       style="transform: none;"
       id="g95">
      <path
         id="p1FILocbQO"
         d="M2330 5142 c0 -10 34 -41 116 -105 27 -20 78 -61 113 -90 35 -28 68 -55 75 -59 87 -52 119 -68 135 -68 12 0 30 -17 48 -45 15 -24 32 -43 37 -41 18 5 26 60 19 124 -5 53 -10 66 -31 80 -28 18 -121 41 -202 49 -30 3 -67 14 -82 24 -14 11 -29 19 -32 19 -3 0 -26 16 -52 35 -25 19 -53 35 -61 35 -9 0 -31 11 -50 26 -18 14 -33 21 -33 16z" />
      <path
         id="pyqZh0j0K"
         d="M466 4924 c-22 -19 -57 -40 -79 -46 -21 -7 -41 -18 -44 -25 -3 -8 -21 -13 -45 -13 -28 0 -46 -7 -63 -25 -14 -13 -25 -29 -25 -35 0 -6 -11 -15 -25 -20 -21 -8 -25 -16 -25 -47 0 -31 6 -43 34 -65 23 -18 47 -28 69 -28 19 0 40 -7 47 -15 14 -17 80 -21 80 -5 0 6 16 10 35 10 28 0 37 5 50 30 9 17 24 30 34 30 10 0 30 9 44 20 14 11 33 20 42 20 9 0 27 12 41 27 14 15 40 29 62 32 28 5 38 11 40 29 3 18 -1 22 -22 22 -18 0 -33 11 -51 37 -14 21 -25 42 -25 48 0 5 -8 19 -16 30 -15 19 -16 15 -11 -47 4 -60 2 -69 -18 -88 l-23 -21 -22 31 c-18 25 -21 41 -17 73 2 23 8 50 12 60 13 30 -36 19 -79 -19z" />
      <path
         id="pUM4YpPxH"
         d="M1118 4668 c-25 -24 -51 -53 -57 -65 -7 -14 -21 -23 -36 -23 -28 0 -95 -30 -95 -42 0 -20 -51 -58 -78 -58 -16 0 -36 -8 -45 -18 -16 -17 -15 -19 18 -35 49 -24 100 -22 118 3 13 18 16 19 27 5 10 -12 10 -15 -3 -15 -9 0 -29 -17 -46 -37 -25 -30 -31 -47 -31 -85 0 -53 23 -68 34 -23 9 36 50 53 74 32 32 -29 42 -21 42 36 0 43 5 58 23 75 13 12 29 22 35 22 6 0 23 17 37 38 14 20 32 47 41 59 13 19 15 37 9 98 -4 41 -10 75 -14 75 -4 0 -28 -19 -53 -42z" />
      <path
         id="pOnuC3slG"
         d="M720 4502 c0 -53 -11 -58 -84 -39 l-55 14 -29 -31 c-16 -17 -35 -41 -41 -54 l-12 -23 -29 21 c-16 11 -32 29 -35 40 -5 15 -15 20 -45 20 -60 0 -90 -15 -90 -45 0 -15 -6 -25 -15 -25 -8 0 -27 -18 -41 -40 -26 -39 -28 -40 -83 -40 l-56 0 -37 -61 c-42 -66 -48 -107 -20 -132 24 -22 90 -23 98 -2 8 20 24 19 54 -5 40 -32 95 -26 133 12 22 23 47 36 82 43 44 9 50 13 53 37 3 25 7 27 55 30 l52 3 3 38 3 38 20 -25 c15 -19 30 -26 55 -26 l34 0 0 50 c0 43 3 50 19 50 23 0 51 36 51 65 0 11 -9 45 -20 75 l-19 55 -1 -43z" />
      <path
         id="p2fU9Oowa"
         d="M2016 4295 c-10 -16 -26 -25 -41 -25 -19 0 -33 -11 -55 -47 -44 -69 -38 -92 16 -57 23 15 26 15 43 0 9 -9 24 -16 33 -16 37 0 77 -96 78 -185 0 -44 18 -104 39 -129 8 -10 29 -16 52 -16 29 0 39 -5 44 -20 4 -12 15 -20 28 -20 20 0 22 4 19 50 -4 55 5 63 37 29 l20 -21 30 31 c17 18 31 38 31 45 0 11 10 13 40 9 42 -6 80 15 80 42 0 7 7 18 15 25 23 19 19 48 -7 52 -15 2 -30 16 -40 38 -24 47 -63 80 -97 80 -46 0 -117 37 -192 100 -62 52 -73 58 -90 47 -15 -9 -23 -9 -39 1 -26 16 -25 16 -44 -13z" />
      <path
         id="pv6RHtF0j"
         d="M897 4182 c-10 -10 -17 -30 -17 -45 0 -50 -17 -75 -55 -83 -47 -8 -58 -37 -52 -131 3 -54 1 -73 -10 -77 -8 -3 -13 -21 -13 -46 0 -34 6 -45 41 -78 23 -20 55 -45 73 -54 39 -22 126 -24 126 -4 0 8 5 16 11 18 8 3 7 13 -4 34 -8 16 -14 45 -12 64 2 21 -6 53 -18 79 -15 32 -18 48 -10 60 11 17 2 54 -17 66 -7 4 -1 17 16 38 23 27 25 36 19 76 -8 55 -31 101 -49 101 -7 0 -20 -8 -29 -18z" />
      <path
         id="p17dm4yoh4"
         d="M1789 3797 c6 -6 11 -19 11 -30 0 -17 -2 -17 -22 -3 -12 9 -40 16 -60 16 l-38 0 19 -39 c17 -33 18 -41 6 -57 -7 -11 -15 -31 -17 -44 -4 -25 -4 -24 -41 14 -20 22 -37 45 -37 51 0 6 -15 26 -34 44 -48 47 -56 23 -19 -53 17 -34 40 -82 51 -107 21 -49 22 -49 119 -66 43 -7 83 4 83 22 0 25 14 18 94 -45 75 -60 136 -130 136 -157 0 -8 -13 -19 -30 -24 -20 -7 -30 -18 -30 -31 0 -10 4 -16 10 -13 5 3 21 -6 35 -21 14 -15 26 -25 28 -23 26 45 37 79 37 118 0 26 7 72 14 102 8 31 12 66 9 77 -7 30 1 28 44 -12 21 -18 48 -36 61 -40 34 -11 29 29 -10 74 -18 21 -48 56 -66 79 -30 37 -37 41 -79 41 -37 0 -46 -4 -50 -21 -4 -12 -11 -18 -20 -15 -8 3 -20 6 -27 6 -10 0 -12 13 -8 48 l4 48 -48 23 c-61 29 -83 38 -113 45 -18 4 -21 2 -12 -7z" />
    </g>
  </g>
  <g
     id="l6CAgzTgpwKLWwZc55NZudg"
     fill="rgb(138,137,128)"
     style="transform: none;">
    <g
       style="transform: none;"
       id="g104">
      <path
         id="pO3O7SNY"
         d="M1824 3972 c4 -57 1 -79 -12 -102 -9 -16 -20 -30 -24 -30 -15 0 -8 -31 15 -65 12 -19 29 -34 37 -33 20 3 90 -32 90 -44 0 -5 -9 -12 -20 -15 -24 -6 -25 -16 -6 -33 8 -6 13 -17 10 -24 -3 -9 8 -15 34 -20 21 -3 51 -15 65 -27 l27 -20 0 36 c0 39 20 55 45 35 13 -11 15 -7 15 24 0 29 4 36 20 36 17 0 20 7 20 45 0 24 -5 56 -12 71 -11 23 -10 28 8 43 13 11 18 22 13 31 -4 8 -18 42 -31 75 l-23 60 -3 -40 c-6 -68 -21 -74 -64 -24 l-38 44 5 -50 c3 -27 8 -69 10 -92 l5 -43 -70 71 c-39 39 -70 79 -70 89 0 10 -12 32 -26 47 l-25 28 5 -73z" />
      <path
         id="p9RoEW9vP"
         d="M2497 4022 c-10 -10 -17 -23 -17 -29 0 -14 -35 -44 -43 -37 -4 4 -22 8 -42 10 -29 2 -35 -1 -35 -17 0 -11 -11 -30 -25 -43 -34 -32 -31 -50 11 -83 19 -15 45 -36 56 -45 26 -22 42 -23 59 -2 11 13 26 15 75 11 l61 -6 58 54 59 54 -47 41 c-26 23 -47 48 -47 55 0 21 -50 55 -80 55 -15 0 -34 -8 -43 -18z" />
      <path
         id="pC7bm0uPE"
         d="M730 4010 c-19 -11 -43 -19 -52 -20 -15 0 -17 -11 -17 -86 1 -70 -2 -89 -15 -96 -33 -19 -12 -122 33 -162 11 -11 26 -38 31 -60 29 -117 44 -153 78 -188 30 -32 43 -38 78 -38 40 0 42 1 48 38 3 22 16 48 31 62 l25 23 6 -31 c9 -43 25 -40 48 8 16 34 18 46 8 79 -7 21 -11 56 -10 79 0 22 -4 53 -11 70 -10 23 -17 28 -36 24 -15 -2 -22 -9 -18 -18 7 -19 -24 -17 -63 4 -37 20 -114 88 -114 101 0 5 10 15 22 23 22 15 22 17 9 67 -15 60 -8 116 17 130 34 20 -62 11 -98 -9z" />
      <path
         id="poJRaQeD1"
         d="M1575 3673 c4 -10 11 -30 15 -44 4 -14 15 -39 24 -57 9 -17 16 -38 16 -46 0 -9 12 -40 26 -70 32 -67 27 -96 -7 -43 -21 34 -27 37 -54 32 -16 -4 -46 -8 -65 -10 -27 -2 -35 -7 -33 -21 6 -52 -35 -49 -96 7 -51 46 -50 25 1 -23 27 -26 58 -71 78 -113 18 -38 48 -87 67 -108 18 -20 33 -42 33 -47 0 -6 11 -10 25 -10 21 0 25 5 25 30 0 35 10 38 35 10 10 -11 31 -20 47 -20 24 0 27 3 19 18 -12 22 -33 113 -28 119 3 2 29 -19 59 -46 49 -45 57 -49 73 -37 11 8 16 20 12 30 -4 9 -4 30 0 46 4 24 11 30 30 30 14 0 36 -9 50 -20 14 -11 30 -20 34 -20 16 0 10 50 -9 78 -77 115 -101 154 -121 200 -23 49 -51 70 -51 38 0 -17 -35 -30 -52 -20 -7 4 -28 10 -47 14 -31 5 -39 12 -64 63 -16 31 -33 57 -39 57 -6 0 -7 -8 -3 -17z" />
      <path
         id="pTDNNJdFE"
         d="M4055 3483 c-14 -16 -31 -45 -37 -66 -15 -49 -79 -122 -130 -148 -32 -16 -50 -19 -88 -14 -62 9 -89 -8 -123 -78 -34 -71 -42 -120 -22 -141 33 -33 85 -14 85 31 0 31 5 29 41 -12 17 -19 40 -35 51 -35 18 0 20 4 14 32 -3 17 -13 39 -21 48 -13 14 -13 19 1 38 13 19 25 22 80 22 82 0 111 15 173 89 l49 59 -5 89 c-7 118 -21 135 -68 86z" />
      <path
         id="piEd0ok8Y"
         d="M1561 2334 c-1 -38 5 -48 74 -123 41 -44 75 -85 75 -91 0 -5 21 -22 48 -37 72 -41 121 -84 146 -125 21 -36 64 -70 179 -143 56 -36 63 -37 150 -39 51 0 95 -5 99 -11 4 -5 8 -23 8 -38 0 -49 16 -67 60 -67 44 0 50 9 20 28 -26 16 -25 40 2 69 19 21 20 26 8 48 -13 24 -11 27 21 55 39 33 30 37 -51 18 l-52 -12 -28 34 -28 34 -31 -34 c-23 -26 -35 -32 -45 -25 -7 6 -39 27 -70 48 -76 50 -87 80 -31 80 63 0 0 79 -76 94 -15 3 -29 13 -32 24 -4 14 -14 19 -39 19 -18 0 -42 6 -54 13 -79 46 -120 81 -158 134 -43 59 -75 81 -96 68 -5 -3 -10 -13 -10 -21 0 -8 -5 -14 -10 -14 -18 0 -68 29 -73 42 -3 7 -6 -6 -6 -28z" />
    </g>
  </g>
  <g
     id="l5qsYsYIVIPYPafJDLhUwMY"
     fill="rgb(130,128,117)"
     style="transform: none;">
    <g
       style="transform: none;"
       id="g112">
      <path
         id="pllo48jzJ"
         d="M460 5056 c0 -41 -34 -57 -119 -56 -19 0 -45 -7 -59 -16 -20 -13 -29 -14 -47 -4 -28 15 -45 6 -45 -22 0 -30 -41 -98 -59 -98 -9 1 -34 7 -56 15 -82 30 -75 66 -75 -400 0 -386 1 -416 17 -423 23 -9 128 -7 213 4 64 9 65 9 68 42 3 31 2 33 -18 22 -17 -9 -26 -7 -52 11 -43 31 -89 33 -110 6 -16 -21 -17 -21 -36 -4 -20 18 -20 19 16 78 30 48 42 59 62 58 72 -5 87 0 114 41 14 22 33 40 40 40 8 0 16 12 18 27 5 40 50 52 89 24 32 -24 37 -15 14 28 -16 33 -12 41 23 41 14 0 45 16 68 36 24 19 48 33 53 30 5 -3 15 2 22 10 8 9 32 25 55 34 37 16 44 25 73 96 35 89 38 116 15 135 -12 10 -20 10 -35 1 -10 -7 -30 -12 -44 -12 -14 0 -38 -13 -55 -30 -17 -16 -38 -30 -46 -30 -9 0 -27 -9 -41 -20 -14 -11 -34 -20 -44 -20 -10 0 -25 -13 -34 -30 -16 -32 -41 -38 -77 -19 -18 10 -19 8 -13 -13 7 -22 6 -21 -24 7 -27 25 -34 28 -52 17 -17 -11 -24 -9 -54 15 -41 33 -43 40 -11 53 13 5 27 18 31 30 9 29 50 53 81 47 16 -3 32 2 42 13 9 10 33 23 54 29 42 14 124 82 133 111 9 30 -4 60 -26 60 -12 0 -27 13 -37 30 -21 36 -32 38 -32 6z" />
      <path
         id="p1EYzHg7xM"
         d="M333 4006 c-24 -8 -58 -23 -78 -35 -34 -20 -36 -20 -67 -2 -28 16 -136 41 -176 41 -9 0 -12 -38 -12 -133 0 -120 2 -133 20 -144 16 -11 21 -10 29 4 8 15 14 15 49 5 21 -7 55 -12 75 -12 20 0 39 -4 42 -10 3 -5 31 -10 61 -10 41 0 54 4 54 15 0 11 12 15 51 15 44 0 57 5 93 35 87 73 86 72 86 118 0 39 -4 46 -46 81 -54 45 -110 55 -181 32z" />
      <path
         id="pHhlIa8iq"
         d="M645 3998 c-2 -7 -6 -41 -8 -76 -3 -35 -12 -73 -21 -85 -59 -80 -66 -97 -66 -151 0 -35 -5 -58 -15 -66 -9 -7 -15 -29 -15 -52 l0 -40 -34 21 c-44 27 -107 28 -131 1 -10 -11 -31 -20 -47 -20 -16 0 -28 -4 -26 -9 6 -17 143 -121 159 -121 9 0 44 -34 79 -75 34 -41 81 -90 104 -109 23 -19 53 -50 67 -70 25 -38 39 -45 39 -22 0 8 8 17 18 20 33 11 63 53 70 97 9 55 41 109 65 109 13 0 17 8 17 35 0 19 -4 35 -10 35 -5 0 -10 -7 -10 -15 0 -26 -24 -17 -62 23 -34 35 -49 71 -78 188 -5 22 -20 49 -31 60 -26 23 -52 81 -43 95 4 6 16 2 30 -12 27 -25 29 -23 13 18 -6 15 -12 63 -13 106 -1 64 1 77 14 77 9 0 25 7 36 15 16 13 17 16 4 25 -22 14 -100 13 -105 -2z" />
      <path
         id="pmQJOKkYG"
         d="M2497 2629 c-36 -8 -166 -77 -197 -104 -8 -7 -30 -20 -48 -29 -21 -11 -50 -43 -79 -89 -57 -90 -101 -137 -127 -137 -32 0 -86 -23 -86 -37 0 -19 132 -17 169 1 34 18 91 81 91 101 0 8 12 22 28 32 15 10 67 51 115 93 177 151 189 160 213 160 13 0 24 5 24 10 0 12 -50 11 -103 -1z" />
      <path
         id="pMzQ1q2Jq"
         d="M3136 2333 c-16 -19 -40 -39 -53 -44 -13 -5 -23 -17 -23 -28 0 -25 -22 -42 -68 -52 -20 -4 -55 -12 -77 -18 -22 -6 -80 -15 -130 -21 -98 -12 -154 -2 -212 36 -45 30 -115 62 -150 68 -25 4 -35 1 -43 -14 -14 -26 -13 -30 10 -30 25 0 93 -33 140 -69 45 -35 257 -117 335 -130 69 -12 163 -17 171 -8 3 3 -11 23 -31 46 l-37 40 72 36 c76 36 83 42 131 114 34 52 40 111 12 110 -10 0 -31 -16 -47 -36z" />
    </g>
  </g>
  <g
     id="l7JdC0FbT3peDGVOrgblNmT"
     fill="rgb(120,119,107)"
     style="transform: none;">
    <g
       style="transform: none;"
       id="g119">
      <path
         id="p1DCp4TGEY"
         d="M945 4503 c-7 -10 -22 -29 -32 -41 -18 -24 -19 -24 -56 -6 -35 17 -37 17 -56 0 -22 -20 -51 -15 -51 9 0 8 -4 15 -10 15 -5 0 -10 -12 -10 -28 0 -35 -25 -72 -49 -72 -29 0 -44 -25 -32 -49 6 -11 11 -28 11 -38 -1 -15 -5 -13 -25 10 -14 15 -25 34 -25 41 0 17 -41 29 -55 15 -5 -6 -10 -31 -10 -57 l0 -47 -57 1 -58 1 3 -31 c2 -28 7 -33 52 -48 28 -10 72 -18 98 -18 41 0 50 3 54 20 4 16 14 20 44 20 23 0 39 -5 39 -11 0 -7 -16 -31 -35 -55 -53 -65 -63 -98 -71 -240 -7 -121 -6 -128 10 -115 28 24 38 51 45 125 l6 71 34 -3 c21 -1 49 7 77 22 24 13 57 27 74 31 33 7 50 35 50 83 0 14 9 35 20 47 19 20 19 24 5 58 -24 57 -19 97 16 140 17 21 38 36 47 35 28 -5 26 37 -3 87 -15 25 -29 45 -31 45 -2 0 -11 -8 -19 -17z" />
      <path
         id="pn5H4cabd"
         d="M1291 3119 c-1 -4 8 -27 20 -53 11 -25 17 -50 14 -56 -13 -21 308 -340 343 -340 28 0 20 85 -11 119 -14 14 -32 40 -41 58 -9 18 -32 45 -51 60 -29 23 -35 35 -35 66 0 32 -4 39 -27 48 -32 13 -57 13 -95 4 -28 -8 -48 7 -95 70 -12 17 -22 27 -22 24z" />
      <path
         id="pkdVBY4qu"
         d="M1028 2183 c-11 -20 -20 -78 -29 -195 -11 -154 -11 -169 4 -186 11 -12 17 -36 17 -66 0 -100 40 -132 154 -121 70 6 78 9 91 34 7 15 21 33 29 40 9 8 16 26 16 40 0 15 7 36 15 47 22 29 21 221 -2 271 -35 77 -51 93 -93 93 -34 0 -39 3 -45 29 -5 24 -13 30 -43 35 -74 12 -97 8 -114 -21z" />
      <path
         id="p166HpKM5d"
         d="M2098 2053 c-44 -11 4 -47 84 -62 37 -6 69 -6 99 1 70 16 197 3 270 -28 72 -30 108 -39 229 -60 47 -9 119 -23 160 -32 41 -9 111 -16 155 -17 70 0 86 4 128 28 57 34 79 65 75 107 l-3 30 -35 -47 -35 -48 -95 -3 c-123 -4 -319 33 -505 94 -59 19 -107 25 -280 34 -220 10 -219 10 -247 3z" />
    </g>
  </g>
  <g
     id="l6ZGZr3sUzLCedPidwunGN2"
     fill="rgb(109,112,101)"
     style="transform: none;">
    <g
       style="transform: none;"
       id="g129">
      <path
         id="p66Y5fMwj"
         d="M526 3885 c-4 -14 -23 -36 -44 -49 -20 -13 -46 -33 -56 -45 -23 -25 -87 -29 -106 -6 -20 24 -32 17 -25 -15 6 -25 4 -30 -13 -30 -11 0 -32 6 -47 14 -15 8 -33 12 -41 9 -7 -2 -45 3 -85 13 -69 17 -72 17 -85 -1 -8 -10 -14 -22 -14 -25 0 -10 92 -102 150 -151 84 -69 84 -69 78 -15 l-6 46 45 0 c27 0 56 7 71 18 15 10 47 26 72 35 32 12 50 27 61 50 13 27 22 32 57 35 39 3 42 5 42 33 0 41 -23 109 -36 109 -7 0 -15 -11 -18 -25z" />
      <path
         id="pjPWfke3q"
         d="M926 3499 c-24 -21 -38 -43 -43 -72 -6 -31 -14 -43 -28 -45 -26 -4 -58 -56 -67 -111 -7 -44 -37 -86 -70 -97 -40 -12 -22 -44 100 -173 l43 -46 -4 40 c-3 26 2 52 15 75 10 19 18 50 18 68 0 22 9 45 25 64 14 16 25 37 25 45 0 9 9 30 19 47 27 44 55 157 47 189 -3 14 -15 31 -26 37 -15 8 -26 5 -54 -21z" />
      <path
         id="pMdTkigVt"
         d="M1570 3266 c0 -2 7 -17 15 -32 17 -33 20 -84 5 -84 -5 0 -10 3 -10 8 -1 13 -79 97 -80 85 0 -7 15 -30 34 -50 18 -21 45 -60 59 -88 36 -69 66 -99 121 -123 25 -12 49 -28 52 -36 8 -20 33 -21 40 -1 4 8 12 15 20 15 8 0 14 7 14 16 0 10 -6 14 -15 11 -11 -5 -13 0 -9 21 5 23 -5 41 -58 107 -37 47 -78 87 -98 96 -19 9 -44 26 -54 38 -17 19 -36 28 -36 17z" />
      <path
         id="pXrS8oxsl"
         d="M971 3091 c-6 -4 -11 -22 -9 -39 1 -18 -5 -39 -15 -50 -9 -10 -17 -24 -17 -31 0 -6 -12 -24 -26 -38 l-26 -26 21 -51 c11 -28 21 -63 21 -77 0 -14 5 -40 11 -58 11 -30 9 -34 -38 -84 -77 -82 -90 -111 -95 -199 -3 -75 -3 -78 19 -78 17 0 23 6 23 24 0 42 22 90 67 144 40 47 49 52 85 52 71 0 113 -41 133 -128 6 -31 9 -33 43 -30 l37 3 3 72 c2 47 -2 82 -11 99 -13 24 -11 28 15 54 32 32 38 83 14 116 -12 15 -17 17 -27 7 -22 -22 -40 -15 -90 32 -26 25 -53 45 -60 45 -9 0 -10 23 -5 87 6 79 5 89 -16 119 -26 37 -39 46 -57 35z" />
      <path
         id="p14Fi2pk0j"
         d="M1082 2306 l-51 -53 0 -87 c1 -54 4 -84 11 -80 5 3 7 13 4 21 -7 18 24 73 41 73 18 0 16 -13 -7 -42 l-19 -25 24 -23 24 -23 11 27 c5 15 10 36 10 46 0 36 19 30 25 -7 3 -21 11 -47 17 -58 6 -11 18 -31 26 -45 13 -23 13 -22 9 28 -3 45 -2 52 14 52 19 0 45 -33 72 -93 22 -49 23 -183 2 -211 -8 -11 -15 -32 -15 -47 0 -14 -7 -32 -16 -40 -8 -7 -22 -25 -29 -39 -12 -23 -23 -28 -66 -33 -33 -4 -58 -2 -66 4 -10 9 -13 5 -13 -20 0 -43 32 -54 140 -48 95 5 121 16 151 65 12 18 36 51 55 73 19 23 34 49 34 58 0 10 9 26 20 36 17 15 20 31 20 93 0 66 -2 76 -24 93 -30 24 -76 101 -76 128 0 11 -9 25 -21 31 -11 7 -27 27 -35 46 -9 21 -21 34 -33 34 -14 0 -22 12 -30 45 -11 44 -12 45 -51 45 -29 0 -40 4 -40 15 0 10 -10 15 -34 15 -27 0 -42 -10 -84 -54z" />
      <path
         id="p1GMhUmL4B"
         d="M1656 2351 c-3 -4 4 -17 15 -27 12 -11 39 -44 60 -74 21 -31 53 -64 71 -74 18 -10 43 -28 54 -38 12 -11 44 -22 70 -26 40 -6 50 -11 52 -29 3 -17 10 -21 33 -21 16 1 38 -7 49 -17 20 -18 20 -17 20 16 0 27 -8 43 -37 71 -21 21 -49 41 -63 47 -24 9 -24 10 10 11 40 1 70 20 70 44 0 13 -11 16 -52 16 -31 1 -61 7 -72 15 -11 8 -35 15 -54 15 -20 0 -71 17 -118 40 -88 42 -99 45 -108 31z" />
      <path
         id="pvmGLMzvY"
         d="M2322 1817 c-30 -9 -33 -14 -27 -36 3 -14 10 -43 14 -65 19 -86 70 -105 296 -111 102 -3 149 1 217 16 48 10 111 19 140 19 95 1 232 61 322 142 52 47 34 49 -26 3 -49 -36 -76 -45 -233 -70 -55 -9 -127 -21 -160 -27 -33 -6 -112 -13 -175 -15 -63 -2 -126 -4 -140 -4 -14 -1 -54 4 -90 10 -72 11 -94 30 -86 73 3 15 1 30 -3 33 -5 3 -7 14 -4 25 6 22 3 23 -45 7z" />
    </g>
  </g>
  <g
     id="l6Z5OQW4P6BkpoHDIQ5DJXi"
     fill="rgb(101,100,92)"
     style="transform: none;">
    <g
       style="transform: none;"
       id="g136">
      <path
         id="pm7O7ck9E"
         d="M438 4219 c-4 -26 -47 -42 -91 -34 -17 3 -26 1 -22 -5 3 -5 -10 -26 -29 -46 -27 -28 -45 -37 -73 -39 -21 -2 -58 -7 -83 -13 -66 -15 -98 -6 -120 37 l-19 36 -1 -87 c0 -97 -4 -91 82 -104 26 -3 67 -18 90 -33 l43 -27 75 39 c86 44 138 51 170 22 20 -18 20 -18 20 21 0 32 -7 46 -35 73 -53 50 -47 61 33 61 51 1 72 5 90 19 36 31 27 45 -40 65 -35 10 -68 23 -75 28 -8 6 -12 2 -15 -13z" />
      <path
         id="p13DGTpkKu"
         d="M2096 3868 c-20 -28 -20 -55 -1 -88 8 -14 14 -34 15 -44 0 -18 -1 -18 -19 -2 -18 16 -19 15 -25 -29 -7 -43 -5 -48 36 -96 102 -120 121 -137 165 -143 38 -6 43 -4 55 21 9 19 21 28 37 28 14 0 28 10 37 26 11 22 10 35 -8 94 -17 57 -29 77 -69 114 -27 26 -55 63 -64 83 -18 45 -29 52 -45 33 -17 -20 -33 -19 -55 5 -23 26 -40 25 -59 -2z" />
      <path
         id="pZAqMsnNG"
         d="M1784 3584 c-8 -30 22 -101 77 -184 20 -30 49 -74 64 -98 20 -30 33 -41 44 -37 9 4 23 8 31 10 48 10 68 25 74 55 10 52 -32 114 -132 193 -122 96 -147 105 -158 61z" />
      <path
         id="p6mHlsbtI"
         d="M2311 2467 c-36 -29 -74 -70 -85 -93 -25 -48 -109 -139 -148 -160 -24 -12 -28 -21 -28 -59 0 -51 9 -58 92 -77 29 -6 45 -13 36 -16 -30 -6 -20 -31 15 -36 17 -3 99 -7 181 -11 122 -4 161 -10 220 -30 40 -14 84 -25 99 -25 14 0 83 -13 154 -29 70 -17 164 -32 208 -34 44 -3 67 -3 50 0 -16 2 -51 11 -76 19 -25 8 -99 25 -165 38 -65 13 -135 30 -154 39 -19 8 -56 25 -82 36 -26 12 -55 21 -64 21 -25 0 -143 70 -155 91 -5 10 -19 19 -30 19 -11 0 -35 6 -54 14 -30 13 -39 13 -83 -4 -27 -11 -53 -16 -57 -12 -3 4 12 23 33 42 31 26 50 59 82 135 23 55 52 111 64 125 47 53 50 60 30 60 -11 0 -48 -24 -83 -53z" />
    </g>
  </g>
  <g
     id="l1S0ZfIzgzhcD31JtsCrarf"
     fill="rgb(86,96,92)"
     style="transform: none;">
    <g
       style="transform: none;"
       id="g142">
      <path
         id="puKzCDxU8"
         d="M854 2532 c-24 -31 -44 -85 -44 -117 0 -13 -19 -45 -43 -71 -81 -91 -89 -147 -37 -257 21 -44 22 -54 12 -99 -17 -70 -15 -88 6 -88 20 0 72 51 91 88 7 13 11 56 10 100 -2 77 -2 77 24 80 20 3 27 -1 27 -14 0 -10 9 -27 20 -39 17 -18 20 -40 26 -160 5 -141 23 -241 50 -282 12 -19 23 -23 62 -22 26 0 41 3 34 6 -22 9 -42 60 -42 109 0 29 -6 54 -16 65 -13 15 -14 31 -4 136 7 65 13 130 14 145 2 15 8 34 15 42 8 9 11 26 7 41 -6 22 2 35 48 83 l56 57 0 -30 1 -30 20 24 c16 19 19 36 17 80 l-3 56 -37 3 c-32 3 -38 0 -38 -17 0 -28 -70 -84 -95 -75 -11 3 -33 8 -50 11 -62 11 -100 71 -96 151 2 58 -4 63 -35 24z" />
      <path
         id="pTRJSPzDm"
         d="M2650 2497 c-67 -27 -135 -63 -171 -90 -38 -27 -85 -96 -94 -134 -6 -30 -4 -33 17 -33 13 0 53 -16 88 -35 101 -55 123 -63 190 -74 41 -7 69 -7 81 -1 10 6 53 13 96 16 43 4 93 13 112 20 18 8 43 14 55 14 30 0 66 27 66 51 0 11 10 23 23 28 30 12 73 59 87 95 19 52 15 115 -9 139 -20 20 -31 22 -122 20 -55 -1 -125 -7 -157 -13 -93 -16 -150 -15 -170 3 -23 21 -24 21 -92 -6z m350 -43 c6 -14 10 -37 10 -50 0 -14 4 -22 10 -19 6 3 10 0 10 -9 0 -8 -6 -16 -12 -19 -10 -3 -9 -13 5 -41 9 -20 17 -43 17 -51 0 -7 -26 -26 -57 -42 -53 -26 -66 -28 -168 -27 -103 1 -196 18 -242 42 -29 16 -56 50 -48 61 15 25 126 86 205 114 47 16 90 33 96 38 15 12 82 27 127 28 32 1 39 -3 47 -25z" />
      <path
         id="pCpU8pcX9"
         d="M3240 1683 c-68 -48 -311 -133 -381 -133 -25 0 -50 -5 -57 -12 -13 -13 -180 -20 -188 -7 -2 5 4 17 16 29 28 28 26 32 -17 28 -33 -3 -39 -7 -49 -38 -14 -43 -56 -70 -106 -70 -31 0 -38 -4 -38 -19 0 -27 62 -34 218 -26 125 7 334 48 408 80 145 65 166 77 201 116 21 23 42 48 46 55 12 20 -23 18 -53 -3z" />
    </g>
  </g>
  <g
     id="l7RjpCxEYhaRFbCDck8u88K"
     fill="rgb(95,94,81)"
     style="transform: none;">
    <g
       style="transform: none;"
       id="g146">
      <path
         id="pCa9SiBUq"
         d="M705 4250 c-20 -22 -70 -27 -82 -7 -5 8 -9 2 -13 -17 -4 -23 -12 -32 -36 -38 -17 -4 -37 -15 -44 -23 -9 -11 -32 -15 -81 -15 l-69 0 0 -44 c0 -38 5 -49 35 -77 19 -19 35 -39 35 -46 0 -7 18 -26 39 -43 30 -24 40 -41 43 -68 3 -21 8 -44 12 -53 6 -13 1 -15 -23 -11 -23 3 -36 -2 -55 -23 -15 -16 -26 -34 -26 -41 0 -7 -21 -20 -47 -30 -27 -10 -60 -26 -75 -36 -16 -11 -44 -18 -71 -18 -52 0 -59 -11 -44 -71 17 -71 139 -117 182 -69 25 27 36 25 89 -15 26 -19 48 -35 51 -35 11 0 36 63 33 84 -1 13 3 31 11 40 8 9 13 37 12 67 0 41 5 60 28 94 25 37 30 56 36 142 8 114 20 148 75 213 22 26 40 57 40 68 0 19 -27 92 -34 92 -1 0 -11 -9 -21 -20z" />
    </g>
  </g>
  <g
     id="l1xZnNL6fkxwvA21WOxH1sW"
     fill="rgb(75,78,71)"
     style="transform: none;">
    <g
       style="transform: none;"
       id="g151">
      <path
         id="p13I01ekvu"
         d="M1204 2746 c6 -32 3 -40 -23 -66 -16 -17 -37 -30 -45 -30 -18 0 -21 -15 -6 -25 21 -13 50 -85 50 -124 0 -44 -15 -63 -23 -30 -3 12 -10 18 -16 14 -12 -7 -15 -83 -5 -109 8 -21 24 -10 24 15 0 11 5 17 10 14 7 -4 8 -31 4 -73 -7 -66 -7 -67 13 -49 32 28 61 22 71 -17 6 -18 8 -46 5 -62 -4 -26 -3 -27 10 -11 21 26 35 21 51 -17 8 -19 24 -39 35 -46 12 -6 21 -20 21 -31 0 -27 46 -104 76 -128 32 -25 34 -99 4 -126 -11 -10 -20 -26 -20 -36 0 -9 -15 -35 -34 -58 -19 -22 -43 -56 -55 -74 -29 -47 -63 -62 -142 -62 -55 0 -72 4 -91 22 -13 11 -39 30 -58 40 -27 15 -39 31 -54 74 -25 72 -38 259 -19 277 16 17 16 22 -2 46 -8 11 -15 27 -15 36 0 9 -9 25 -20 35 -11 10 -20 31 -20 47 0 25 -3 27 -18 19 -10 -5 -32 -9 -49 -9 -51 2 -55 -6 -48 -87 8 -81 2 -99 -50 -155 -55 -59 -57 -179 -5 -235 10 -11 20 -33 22 -50 2 -19 10 -31 23 -35 29 -7 75 -51 75 -70 0 -34 66 -105 126 -134 91 -45 168 -54 272 -32 48 9 107 27 132 38 111 50 216 89 292 108 72 19 89 20 152 10 39 -6 94 -18 121 -25 94 -26 310 -74 380 -85 80 -11 170 -2 208 23 13 8 27 29 30 46 8 40 51 59 210 97 111 26 137 37 123 51 -4 4 -50 -2 -103 -12 -106 -20 -273 -23 -367 -8 -47 8 -65 17 -88 42 -15 17 -28 43 -28 57 0 52 -13 61 -94 61 -66 1 -81 5 -124 31 -63 39 -141 95 -168 121 -27 27 -34 26 -34 -2 0 -13 -5 -28 -11 -34 -6 -6 -9 -26 -7 -44 2 -29 10 -38 49 -59 25 -14 60 -37 78 -53 18 -15 41 -27 51 -27 10 0 21 -4 24 -9 6 -9 108 -69 181 -106 l40 -20 -94 -3 c-78 -2 -103 1 -142 18 -26 11 -57 20 -69 20 -12 0 -38 8 -57 17 -29 13 -44 15 -84 6 -38 -7 -52 -7 -60 3 -7 9 -46 12 -140 11 l-129 -1 -31 30 c-27 28 -29 33 -18 57 7 15 28 36 46 47 l34 20 -6 78 c-5 58 -3 88 9 123 30 87 31 132 5 186 -30 62 -80 116 -196 209 -51 42 -93 84 -93 93 0 10 -13 38 -30 64 -37 58 -37 67 -4 67 l25 0 -35 62 c-42 75 -62 88 -52 34z" />
      <path
         id="p6uQg94nf"
         d="M2229 2405 c-20 -13 -39 -35 -43 -48 -8 -32 -78 -95 -113 -102 -16 -3 -42 -13 -60 -22 -32 -15 -111 -14 -160 3 -11 4 -2 -10 21 -34 22 -23 54 -46 72 -52 18 -6 57 -38 88 -71 l55 -61 58 7 c82 9 113 15 113 24 0 20 -45 50 -90 60 -93 20 -115 47 -62 75 32 17 142 131 142 147 0 6 9 22 20 36 22 29 27 63 8 62 -7 0 -29 -11 -49 -24z" />
    </g>
  </g>
  <g
     id="l1dmsfkplTNFwfz9rxPLli8"
     fill="rgb(64,76,62)"
     style="transform: none;">
    <g
       style="transform: none;"
       id="g155">
      <path
         id="p19klo6egY"
         d="M970 2613 c-58 -5 -96 -41 -116 -109 -14 -49 -14 -53 7 -90 34 -60 60 -84 89 -84 15 0 39 -9 53 -20 35 -27 45 -26 102 18 l50 38 0 65 c0 89 -25 142 -80 169 -23 11 -46 19 -51 18 -5 -1 -29 -3 -54 -5z" />
    </g>
  </g>
  <g
     id="l6r27U7cuclsHuAfMUQBS1M"
     fill="rgb(61,63,56)"
     style="transform: none;">
    <g
       style="transform: none;"
       id="g159">
      <path
         id="p173zg0ds6"
         d="M1206 2665 c-22 -33 -21 -38 20 -91 19 -26 38 -60 41 -75 4 -20 27 -46 77 -86 199 -161 259 -253 216 -333 -18 -33 -32 -190 -19 -206 9 -11 4 -18 -23 -34 -40 -23 -58 -56 -58 -104 0 -43 44 -86 89 -86 18 0 42 -5 53 -11 16 -8 40 -8 95 1 65 11 75 11 91 -4 19 -16 58 -19 102 -7 15 4 35 2 50 -6 14 -7 36 -13 50 -13 14 0 45 -9 69 -20 32 -15 65 -20 126 -20 46 0 106 -5 134 -12 39 -9 54 -9 63 0 16 16 -35 87 -75 103 -37 15 -145 77 -168 96 -8 7 -23 13 -32 13 -9 0 -31 13 -49 29 -18 15 -52 38 -75 50 -46 23 -59 36 -43 46 17 10 11 65 -10 99 -22 37 -74 80 -142 119 -27 15 -48 32 -48 38 0 5 -28 40 -63 77 -34 37 -73 83 -86 102 -13 19 -88 101 -165 181 -78 80 -147 153 -154 162 -18 24 -47 21 -66 -8z" />
    </g>
  </g>
</svg>
